<svg xmlns="http://www.w3.org/2000/svg" viewBox="0 0 1423.18 645.51"><defs><style>.cls-1{fill:#0c0c0c;}</style></defs><title>Complete Logo</title><g id="Layer_2" data-name="Layer 2"><g id="Layer_1-2" data-name="Layer 1"><path class="cls-1" d="M637.32,25.13c3.33.15-1.55,3,0,0Z"/><path class="cls-1" d="M630,29.35l2-.46.16,2.56-2.67,0,.56-2.08Z"/><path class="cls-1" d="M128.83,35.71c3.92-1.26,8-.21,12.06-.73,2.85,3.51,6.34,6.76,8,11,0,4-.59,8.21,1.12,12,1.38,2.1.17,5,2.13,6.82,4,4.86,5.5,11.13,8.3,16.68,1.65,3.19,1.11,7,2.91,10.14,1.55,3.09,1.16,6.88,3.35,9.67,3.15,3.84,7.33,7,9.14,11.81a34.11,34.11,0,0,0,7.82,12.32,42.25,42.25,0,0,1,.39,6.66c-9.74,2.36-19.81,4.47-29.83,2.68a47.3,47.3,0,0,1-22.57-9.1c-.48,1.4-1,2.8-1.51,4.19a18,18,0,0,1-3.13-8c-1.44-.82-3.15-1.29-4.2-2.64-2.6-3.07-5.91-5.43-8.58-8.43a210.8,210.8,0,0,1-11.67-20.25C98.68,84.62,98.79,77,94.92,71.12c.77-7.3-4.54-13.71-3.22-21.08,6.24-5.06,14.54-6.63,21.12-11.17,5.29-1.23,10.66-2.19,16-3.16Z"/><path class="cls-1" d="M622.62,35.94c1.63-.53,2.18,0,1.67,1.65q-2.48.78-1.67-1.65Z"/><path class="cls-1" d="M622,39.2c1.82.63-.42,3.74-1.87,2.65-.59-1.13.94-2.27,1.87-2.65Z"/><path class="cls-1" d="M230.63,414.41c.51-4.52,0-9.06.51-13.57-.33-2.77-1.71-5.3-2.09-8.07-1.19-9.73-6.74-18.12-9.5-27.38-2.61-8.65-5.35-17.27-8.1-25.87-2.45-5.09-4.06-10.49-6.19-15.69-.85-5.53-4-10.23-5.66-15.54-2.82-5.43-3.9-11.56-7-16.83-1-1.82-1.44-3.89-2.26-5.78-1.57-4-4.2-7.47-5.36-11.62-1.87-4.43-2.1-9.39-4.43-13.65a40.07,40.07,0,0,1-3.85-12.18c-2.12-5.53-4.67-10.89-6.34-16.58-1.19-4.47-3.75-8.45-4.73-13-.83-3.12-1.37-6.4-3-9.25-3.9-5.9-3.81-13.5-7.74-19.4-2.7-5-6.31-9.49-9.86-13.94-3.64-5-8.75-8.73-13.48-12.67-5.49-2.68-10.83-5.65-16.27-8.43-7.15-2.42-14.65-3.67-21.94-5.55-6.8.32-14-1.21-20.42,1.7-2.65.1-5.37-.1-7.75,1.33-3.78,2.1-8.17,1.1-12.18,2-6.72,2.83-14,4.56-20.13,8.65a34.19,34.19,0,0,1-5.47,5.55A47.06,47.06,0,0,0,12.52,185c-1.3,2.55-3.27,4.7-4.53,7.27-.59,2-.82,4-1.22,6.06-1.25,2.63-3.46,4.83-3.89,7.81a28.74,28.74,0,0,1-2,6.64c-.34,5,.77,10-.38,15-1.59,7.36,1.15,14.55,2.08,21.78.86,5.24,4,9.68,4.92,14.89,2.48,5.94,5,11.88,7.11,18,.94,2.75,2.93,5.15,3,8.17.39,4.64,4.58,7.85,5.33,12.39s3.83,7.94,5.05,12.2A118.11,118.11,0,0,0,34.88,334c2.52,7,4.81,14.19,8.11,20.92a67.15,67.15,0,0,1,4.74,13.47c2.32,3.71,3.45,7.94,4.79,12.07,2.47,5.27,3.94,11,7.25,15.84a112.62,112.62,0,0,0,10.09,24.83,121.58,121.58,0,0,0,11,28.14c1.48,4.41,4.87,7.72,7,11.82,3,3.72,5.3,8,9.14,10.91,3,4.46,8.51,6.07,11.64,10.38,2.36,1.88,5.53,2.46,8.43,3.09,3.75,2,7.9,4.22,12.27,3.25,3.9-.64,7.74.9,11.67.53-.89.82-1.81,1.61-2.73,2.4,3.6,3.45,8.62,2.07,13,3.13,4.07.59,8.9-1.17,12.06,2.3a17.67,17.67,0,0,0,5-8.34,33.36,33.36,0,0,0,8.21,2.64l.87-3.58a15.3,15.3,0,0,0,8.27.28c5.76-1,8.63-8.15,14.71-8.13,2.76.21,4.67-2.34,7.33-2.76,3.59-.51,5.34-4,7.85-6.2A39.37,39.37,0,0,0,224,460.31c5.93-6.17,8.14-15.22,7.57-23.59a81.91,81.91,0,0,0,2-12C234,420.94,231.89,417.73,230.63,414.41ZM116.16,432.62c-1.64.51-2.19,0-1.66-1.66C116.12,430.43,116.68,431,116.16,432.62Zm26.58,52.76.08-1.55C145.65,481.09,145.49,487.55,142.74,485.38Zm11.63-5.25c3.34.1-1.52,3,0,0Zm25.86-2.78q-2.45.75-1.7-1.65C180.18,475.17,180.74,475.72,180.23,477.35Zm3-3.62c.24,1.12.49,2.24.73,3.37-1,.62-1.94,1.24-2.92,1.85.41-2.9,0-6.82,3.74-7.48.6,1.37,1.2,2.74,1.76,4.14Zm.45-41.84c-2.38,3.88-4.64,8.12-8.56,10.69-2,1.48-4.66.71-7,.81-1,1.76-1.31,4.7-3.88,4.67-3.82-.21-7.12,2.62-10.94,2-3.47-.43-7.46-.52-10-3.36-2.74-3.26-6.63-5.49-8.75-9.26a49.15,49.15,0,0,1-5.09-10.08c-1.25-5.84-4.44-11-6.26-16.66-.63-2.27-2-4.17-3.13-6.22-.15-5.62-3.77-10.26-5-15.64-2.42-5.34-3.88-11-5.37-16.63-2.24-5.23-3.77-10.72-5.95-16-3-4.88-2.34-11.25-6.15-15.82-3.79-4.07-3.47-10.06-5.58-15-.23-6.53-4.68-11.87-6.87-17.8-1.09-5-4.65-9-6.36-13.64.51-5.93-4.33-10.35-5-16-1.19-4.5-4.73-8.1-5.22-12.81-3.85-7.75-8-15.46-9.87-24-.54-3.48,0-7.06-1-10.48-1.28-5.93,1.95-11.39,4-16.75,3.53-4.8,8.3-9.1,14.19-10.69,8.64-3.71,18.1.35,25,5.73a85.47,85.47,0,0,1,13.77,30.36c3.33,8.56,8,16.62,10.9,25.34.18,4.6,3.27,8.19,4.28,12.56,1.26,3.62,2.71,7.17,4.17,10.72,1.41,3.17,1.65,6.71,3.06,9.88a215.29,215.29,0,0,1,8.05,21.82c2.42,5.15,3.29,10.92,6.27,15.82,3.92,6.94,5.6,14.79,8.88,22,.94,3,1.82,6,3.81,8.49s2.12,6.08,3.95,8.78c3.09,4.2,2.48,10.12,6.43,13.78,2.09,6.66,5.57,12.75,9.06,18.75a69.15,69.15,0,0,0,4.56,8.59c.1,2.12,0,4.25.08,6.38C184.54,424.31,185.82,428.82,183.71,431.89ZM189,471.56q-2.48.82-1.65-1.6Q189.83,469.11,189,471.56Zm2.1-5.24.6-1.5C195.15,463.15,192.8,469.47,191.12,466.32Zm1-3.76a6.74,6.74,0,0,1,5.12-2.79C197.63,462.7,194.11,462.34,192.16,462.56Zm24.38-50.62c3-1.56.23,3.36,0,0Zm-7.32-11.42.83,1.19c1.61-.28,3.22-.55,4.84-.77-1,1.11-2.06,2.17-3.09,3.26l.6.81,2.47-.14c-1.17,1.76-2.91,3-4.37,4.48,2.21.36,4.14-.83,6.16-1.5-1.11,1.27-2.06,2.82-3.6,3.6-1.3-.05-2.59-.14-3.88-.27.53-1.22,1-2.43,1.63-3.61C209.15,405.57,209.25,403,209.22,400.52Zm-.65,19.17q2.45-.81,1.65,1.65C208.59,421.86,208,421.32,208.57,419.69Zm2,3.32c1.64-.54,2.2,0,1.67,1.63Q209.77,425.42,210.58,423Zm-6.06-.29c3-1.58.17,3.33,0,0Zm.57,19c-.1-1.6-.23-3.18-.31-4.76,1.15.07,2.29.16,3.44.27A7.87,7.87,0,0,1,205.09,441.67Zm-.08-7.5a15.75,15.75,0,0,1,4.74-5.48C209.46,431.4,207.25,433,205,434.17Zm3.83-8.17q2.2-.57,1.59,1.44C209,427.83,208.47,427.34,208.84,426Zm3.34,4.26c-1.57.56-2.4-2.08-.7-2.37C213.07,427.32,213.89,430,212.18,430.26Zm9.06-8.5A5.58,5.58,0,0,1,215,423.1l1.23,2.83c-1.2.45-2.42.89-3.63,1.31.72-2.34,1.35-4.7,2.17-7,1.22-1.44,3.42-2,4.47-3.4a19.16,19.16,0,0,1-3-2c-2.13,1.62-4.64,2.62-6.9,4,1.76-2.07,3.19-4.9,6-5.58,4.22.28,5.81,4.72,8.09,7.6-1.75-.56-3.47-1.19-5.19-1.78-.73,1-1.45,2-2.16,3.07C217.87,422,219.55,421.85,221.24,421.76Z"/><path class="cls-1" d="M795.32,356.41c7.51,1.13,15.06,2.28,22.68,2,6.82,1.24,14.15,1.43,20.6-1.38a28.49,28.49,0,0,0,3.48-4.56,16.86,16.86,0,0,0-1.13-6.73c.52-.39,1.56-1.15,2.07-1.54-.71-1-1.41-2.08-2.08-3.12-1.66-.34-3.31-.67-4.94-1-.86,2.95-4.14,3.37-6.68,4.12-1.87-.13-3.43-1.35-5.16-1.91-1.78.63-3.17,2.07-5,2.56-3.27-.09-6.51-.86-9.77-.43-2.3.11-4.59-1.44-6.79-.33-2.69,1.32-5.57.61-8.32,0,1.82-4,3.69-8.57,2.26-13l2.08,0c.18,1.31.38,2.62.61,3.94,1.5-1.55,3.1-3.26,5.47-2.67.23-5.23,6.51-5.55,9.76-8.29-1.29-.46-2.59-.88-3.87-1.32.88-.77,1.79-1.52,2.72-2.25-.58-1.21-1.15-2.42-1.68-3.63,2.36-2,6.78-2.88,6.24-6.73,1.36-.21,2.74-.38,4.1-.72a28,28,0,0,0,1.66-4.27l-3.63.55c.18-1.3.37-2.59.58-3.87a44.53,44.53,0,0,0,4.63.9c2-1.32,3-3.54,4.46-5.36l-2.88-1c-.09-1.2-.19-2.39-.32-3.57,1.53-.39,3-.9,4.54-1.39-.16-1.28-.28-2.56-.38-3.83,1.34-.58,2.69-1.15,4-1.72,0-2.19.11-4.41-.73-6.48,1.27,2.47,3.59,3.83,5.93,5.18-1.6-.14-3.18-.34-4.75-.53a28.92,28.92,0,0,0,3.1,5.67c-.61,1.45-1.26,2.88-1.91,4.31a31.3,31.3,0,0,1,7.7-2.75c-.06-1-.1-2-.13-3-1.67,0-3.33.06-5,.1.88-1,1.81-2,2.68-3,2,.1,4.08.08,6.14.14,2.53-4.64,3.11-9.88,4.7-14.84.57-2.64-1-5.12-1.35-7.68.52-3.87,2.07-7.85.94-11.75-.26-1.71-1.05-3.45-.64-5.18,1.26-4.45,1.18-9.13,2.36-13.6.43-6.81-.88-13.88.88-20.54,1.75-.49,4.94-1.32,5.69,1,3,7.24,1.47,15.59,5.32,22.55a54.15,54.15,0,0,0,4.24,14.75c2.55.16,5,1,7.6,1,1.11,2.13,3.08,3.5,5.07,4.74q1.41-2.13,3-4.12-3.3-.42-6.55-1c1.34-.21,2.7-.34,4.06-.49-.28-3,0-6.09-.79-9l3.52,0q-.2,3.33-.51,6.64a20.29,20.29,0,0,1,2.61-5.2c-1.13-1.17-2.37-2.23-3.55-3.31l4.24-.17c-1.49-2.53-4.2-4.58-3.81-7.83.39-2.86-1.16-5.34-2.3-7.83,2.1-.83,4.27-2.07,3.8-4.7l-3.36-.87c.11-1.13.2-2.27.31-3.39a30.69,30.69,0,0,0,5.69,3.49c-.49-2.27.55-5.6-2.13-6.71a47.61,47.61,0,0,1-6.58-3.4c.77-.7,1.54-1.41,2.33-2.11-.91-1.05-1.79-2.11-2.63-3.19,1.57-1,3.15-2,4.7-3.07l-3.08-.34c-.58-3.29-.85-6.79-3.89-8.86,0-1.43,0-2.86,0-4.28,1.18-.67,2.4-1.3,3.61-1.93l-2.66-.44a25.27,25.27,0,0,0-.7-7.8c3.29,1.64,6.22,4.31,10,4.59-.14.86-.28,1.72-.39,2.58.81.73,1.61,1.47,2.4,2.25,1.91-.16,4.3.34,4.71-2.2.17.88.34,1.76.55,2.65-1.2.46-2.41.89-3.6,1.32,0,1.16,0,2.32,0,3.48l5.41-.18-.44,1.14c-3.12-1.26-2.69,2.23-3,4.22a42.36,42.36,0,0,0-3.76-2.82c.27,1.68.62,3.35,1,5,3.37.28,6.69.93,10,1.38-.12.26-.37.79-.49,1.06l3.69.25a37.11,37.11,0,0,0,.16,4.08A9.38,9.38,0,0,1,911,201.6c-.16,1.16-.32,2.33-.47,3.49-1.81-.07-3.61-.2-5.39-.35-.79,1.18-1.59,2.35-2.37,3.53l3.37.05c-2.66,2.92-7.13,3.83-8.75,7.67-1.33,2.1.47,4.5,1.07,6.57-1,.65-2,1.3-3,2-1.42.63-1.71,1.59-.87,2.91,1.5.44,2.18-.17,2.06-1.86,1.08,1.13,2.17,2.25,3.3,3.34.47-1.23,1-2.46,1.46-3.69,1.26,1.1,2.51,2.23,3.73,3.4a33.6,33.6,0,0,0-10,5.77c2.28-.76,4.55-1.56,6.88-2.2,4.81-3,9.77-5.74,14.85-8.26,1.36-.89,2.13-2.41,3.15-3.64a19.48,19.48,0,0,0-1.17,5.1c1.53-.19,3.07-.43,4.61-.69-.26,1-.51,2-.74,3,2.46-1.37,3.79-3.76,5-6.17-1.86-2.69-1.26-6.27-3.56-8.66l2.52-2.12c-1.3-.51-2.6-1-3.87-1.52a30.42,30.42,0,0,1,7.31.47c0-1.07,0-2.14,0-3.21,2.6-.18,5.2-.51,7.83-.5a16.93,16.93,0,0,1-7.82,2.59c3.59,1.44,3.41,5.66,6,8.08-.89,4.76-6.16,5.39-9.4,7.91,4.32.78,6.7-3.07,9.47-5.6,1.9.06,3.83.09,5.75.13,1.78-1.92,3.75-3.74,4.89-6.14.94,1.8,2.43,3.39,2.9,5.41-1.39,1.85-3.33,3.78-2.93,6.31a17.69,17.69,0,0,1-.79,6.46c-1.8.78-3.54,1.67-5.25,2.61.55,1.14,1.12,2.29,1.68,3.44-2.5,0-5.38-.49-6.59,2.27a27.38,27.38,0,0,0-5.2-2.24c-.75-3-1.06-6.5-4-8.19-1,.67-1.92,1.34-2.86,2a46.5,46.5,0,0,1-.15,9.36c-1.39-1-2.74-1.94-4.12-2.87a30.43,30.43,0,0,0-3.23,5l-2.3-.49c-.91,2.7-3.26,4.54-5.68,5.83-2.21.36-4.44.08-6.64.22-1.5.42-2,2.19-2.8,3.32-1.47-.46-2.94-.89-4.4-1.33.12.59.36,1.78.47,2.37,5.14.53,10.75,1.71,15.51-1a27.2,27.2,0,0,0,3.27,4.52c-1.46.25-2.91.54-4.32.89a41.2,41.2,0,0,0,1.35,6.29c-1.86-1.79-2.93-4.16-4-6.44-1.87,1-3.82,1.89-5.73,2.83a8,8,0,0,1,6.39,4.48c-1.68.49-3.34.95-5,1.44q1.56,1.53,3.08,3.15c.53-1.11,1.06-2.23,1.6-3.34a20.31,20.31,0,0,1,5.34,0c-1,1.45-4.32,2-3.5,4.11a29.78,29.78,0,0,0,6.95,2.46c.42,1.67.9,3.33,1.46,5a33.44,33.44,0,0,1-6.66,3.83c.5,1.53,1.08,3,1.68,4.56-2.29,1-5.14,2.33-5.69,5.06-1.37.57-2.62,1.49-4.09,1.74a31.46,31.46,0,0,1-5.52-3.11c-2.23-2.22-5.39-3.1-7.39-5.61,1-.21,2-.41,3-.6,0,.47.05,1.4.07,1.87l1.63.73c1.87-2.58,1.95-6.29-.77-8.31,1-1.32,2.12-2.58,3.21-3.85-1.94-.34-3.87-.71-5.81-1,.15-3-.13-6.06,0-9.08-3.13,1.34-2,4.5-.92,6.93-1.91,1.61-4,1-6.06.08,2.94,1.74,6,3.21,8.75,5.34a8.29,8.29,0,0,0-1.67,6.68c-1.2-.82-2.8-1.34-3.18-2.9-1.55-4.2-4.42-7.71-6.74-11.49,1.53,0,3.09.08,4.64.15.5-.76,1-1.52,1.55-2.26a10.22,10.22,0,0,1-1-5.68c-2.73-.32-5.83-1.7-8.34,0a33.77,33.77,0,0,0-2.91,2.26l4.32.13c-1.27,1.1-2.54,2.18-3.74,3.34,1.46,1.16,3.61,1.81,4.21,3.78.86,2.32,2.83,3.9,4.55,5.59-.91,3.18-1.9,6.33-2.8,9.51-1.56-2.65-1.24-5.86-2.59-8.57.07,2.74.56,5.44.81,8.17.4,2.16-.49,4.43.52,6.5,1.48,3.82,1.55,8,3.14,11.8-.71,1.55-2.24,3-1.76,4.83a237.39,237.39,0,0,0,3.95,24.3c-.44,8.17,3.09,15.82,3.7,23.89a19.81,19.81,0,0,0,4,6.33c3.29,1.84,7.25,1.77,10.78,3,2.71,1.08,5.6.27,8.41.22,2.67.35,4.81,2.22,7.32,3.08,5.84.18,11.82.87,17.53-.72,3.79-1.05,8.38-.4,11.29-3.54,2.5-2.28,2-5.81,2.33-8.82,1-5.59-1.83-11.08-.69-16.67a36.39,36.39,0,0,1-4.67-2.67c.85-2.31,2.13-4.42,3.15-6.65a28.79,28.79,0,0,1-9,2.24c1.35-2.79-1.15-5-2.91-6.83,1.52.61,3.06,1.23,4.61,1.83a41.28,41.28,0,0,1,4.58-2.24c.1-1.64.2-3.29.35-4.92,1.27,0,2.55,0,3.85.08a24.27,24.27,0,0,0,2.21-10.57c2.35-7.38.71-15.2,2.29-22.7,1.76-8.35.66-16.94,2.21-25.3.26-3.08-1.5-5.92-1.14-9,.68-3.72-1-7.3-.59-11,.3-3.1-1.4-6.24-.07-9.23,1.55-3.74,1-7.94,0-11.72a27.83,27.83,0,0,0-.81-8.13c-.46-3.4,3.54-4.83,3.9-7.92-.29-2.94-.41-5.91-.92-8.82,1.57-3.85,1.07-8-.34-11.84-1.33-2.7,1.3-4.57,2.67-6.53a81.42,81.42,0,0,0,.08-8.7c-.3-3.82,1.46-7.42,1.55-11.21-.2-5,1.08-9.9,1.68-14.84.29-3.8-.62-7.69.47-11.42,1.08-5.46.55-11,.86-16.56-.26-5.06,1.58-10,.87-15,.57-4.72,2-9.34,2.75-14-1.25-10.64,1.44-21.34.07-32,.16-4,2.55-8,1.42-12-.81-3.36,2.52-5.76,2.91-8.88-1-5.52,1.24-11.6-2.31-16.53-7.22-5.34-16.76-5.45-25.35-5-2.1-.36-4.23-1.89-6.34-.74-2.77,1.38-5.9.48-8.84.91-4.3.13-9.15,2.56-10.23,7.05-2.47,7.15-2.7,14.75-2,22.21a144.5,144.5,0,0,0-2.13,32c-1.12,6,.17,12.18,1.91,17.94-1.67,5.42-.64,11,1.18,16.23-1.18,3-2.5,5.94-3.74,8.92l3-1.94c.43,1,.86,2.12,1.4,3.14a7.58,7.58,0,0,0-3.89,5.3c1.36.11,2.75.2,4.13.33-.92.67-1.82,1.36-2.7,2.05l-2.9-1.87c-3.15,9.69-3.32,20-4.75,30,.16,4.07.14,8.13-.08,12.21-1.85,0-3.78.89-5.56.09a11.17,11.17,0,0,1-2.4-3.78c-1.2-2,.41-4.3-.09-6.42-.61-2.45-1.31-4.88-1.7-7.37-.59-6.12-3.33-11.8-4-17.91.4-5.17-2.52-9.78-3.2-14.8-2.41-9.29-4.26-18.71-6.5-28-.4-7-2.27-13.91-2.54-21-1.55-5-2.18-10.29-3.71-15.33,0-13.06-6.12-25.35-6-38.41a30.2,30.2,0,0,1-5.92-6c-7.11.24-13.46-3.75-20.48-4-3.22.28-6.46-.34-9.66.22C832.61,2,828.57-.18,824.42,0a40.87,40.87,0,0,0-6.59,2,37.75,37.75,0,0,0-5.8,8.17c-1.68,6.27-2.88,12.88-1.45,19.32-1.81,4.55-1.39,9.39-.94,14.14.53,2.71-1.59,4.69-2.84,6.82.74,2,2.16,3.92,1.92,6.18a143.89,143.89,0,0,0-1.54,25c-1.95,9.49-1.31,19.29-1.64,28.94-.72,3.13-1.31,6.37-.68,9.57,1.13,2.38,2.37,4.71,3.44,7.13l2.11-2.4c.63,1.12,1.26,2.22,1.93,3.33,1.25-1.14,2.92-1.93,3.83-3.41-.23-1-.48-2.09-.74-3.12a18.1,18.1,0,0,0,5.39,1.64c0-.69,0-2.08,0-2.77,1.48.74,3,1.38,4.47,2.17-4.36.09-7.36,3.53-11.07,5.3,1.08.91,2.16,1.84,3.21,2.81-1.68-.31-3.33-.7-5-1.07-1.09,1.34-2.14,2.71-3.17,4.09.61,1,1.24,2,1.88,2.93-1.1-.3-2.18-.6-3.25-.91.08-1.85.19-3.7.28-5.55-.78.78-1.54,1.56-2.29,2.34.78,4.37,2.32,10-2.08,13l2.82,1.83c-.13,1.86.12,3.83-.77,5.55-1.19,2.63-1.21,5.74-3.36,7.89.52,1.33,1.89,2.59,1.21,4.11-1,2.83-.43,5.9-1.69,8.67-.52,4.59,1.42,9.07,0,13.63-.93.38-1.84.78-2.73,1.18a22.8,22.8,0,0,1,2.49,5.11c.3,2.85-1.28,5.5-.75,8.37-5.48,2-5.63,8.69-5.47,13.57a39.7,39.7,0,0,0-2.09,14.14c.28,3.08-2.37,5.63-1.76,8.74.81,5.68-1,11.28-.74,17-1.79,5.68-.84,11.65-2.16,17.39.21,4.79-1.38,9.36-2.35,14-.39,4.12,2.21,8.18.26,12.2s-2.24,8.29-2.75,12.57a32,32,0,0,1,.61,13.6c-.86,4.57-.47,9.27-1,13.88-.58,4.12.49,8.19,1.09,12.24C786.19,355.72,791.34,356.27,795.32,356.41ZM912.8,247.68c3-1.53.11,3.33,0,0Zm-26.39,34.06c3-1.61.2,3.34,0,0Zm-2.84-1c1.39-.49,1.83,0,1.33,1.43C883.49,282.61,883,282.14,883.57,280.69Zm6.48,4.76c-.22,1.17-.41,2.34-.58,3.52,1.27.18,2.56.33,3.86.47.26,1.29.51,2.58.76,3.88-3.08-2.11-6.48-4.33-7.29-8.26-1.64,0-3.29,0-4.91-.06C884.55,283.3,887.32,284.85,890,285.45Zm-10.11,2.1c1.7-.07,3.41-.09,5.14-.08.49,2.65,1.14,5.27,1.78,7.9C884,293.16,883.49,289,879.94,287.55Zm9.66,9.86c.18,1.48.3,3,.35,4.47A2.79,2.79,0,0,1,889.6,297.41Zm0-2.65c3-1.56.15,3.34,0,0Zm4-.56c1.47-.13,2.88,3,.91,3.31S892.12,295,893.62,294.2Zm2.47,6.2c-1,1.12-3.31-.29-2.38-1.62C894.68,297.68,897,299,896.09,300.4Zm.75-6.13c-.64-1-1.23-2-1.76-3.09,1.77.36,3.53.8,5.31,1.23C899.23,293.06,898.38,295,896.84,294.27ZM919.23,280c1.18-.95,3.55.64,2.7,2.06C920.75,282.93,918.16,281.45,919.23,280Zm3,69.55q-2.46.77-1.67-1.66C922.16,347.37,922.72,347.93,922.22,349.56Zm1.82-48c-1.63.53-2.19,0-1.66-1.65Q924.79,299.09,924,301.53ZM926.76,289c-1.41.42-1.89-.06-1.43-1.45C926.72,287.07,927.19,287.56,926.76,289ZM931.42,346c3.31.17-1.56,3,0,0ZM944.37,267c3.32.16-1.56,3,0,0Zm-3-85.53c.72-2.84.89-5.81,1.88-8.57l1.62-.08a59.23,59.23,0,0,1,1.29,6.47C944.53,180,942.92,180.68,941.34,181.42Zm12.27-21.65c3-1.54.14,3.35,0,0Zm-7.27-36.54c-.43,2.12-.48,4.52-2.21,6.06C944.3,127.14,943.33,123.7,946.34,123.23Zm-6.88-2.5c1.62-.52,2.17,0,1.66,1.66C939.48,122.91,938.93,122.35,939.46,120.73Zm-1.11,3c1.39-.44,1.87,0,1.44,1.44Q937.66,125.79,938.35,123.7Zm-4.84,9.13q2.41-.77,1.67,1.68C933.54,135,933,134.45,933.51,132.83Zm.24,6.33c0,1.53-.08,3.07-.11,4.6-1,.61-2.06,1.24-3.06,1.88C931.64,143.48,932.55,141.25,933.75,139.16Zm-9.14,11.55c3-1.56.14,3.33,0,0Zm3.78.17c2.76-1.77,5.91-2.89,8.54-4.9.94-.9,2.21-.9,3.44-.93.24-4,1.41-8.84,5.46-10.5l-4.62-.49c1.11-1.2,2.24-2.39,3.41-3.54,1.34,2.64,3.23,5,3.94,8-1-.57-1.91-1.16-2.85-1.74l-3.43,1.13c1.71.89,3.46,1.77,5.17,2.7-.33,1.22-.63,2.45-.92,3.68,2.15,3.1,4.82,5.91,6.38,9.38.08,3.37-1.82,6.42-2.09,9.77a12,12,0,0,1-1.47,4.62c-.59-.72-1.16-1.45-1.72-2.18-1,1.26-2,2.51-3,3.75a37.48,37.48,0,0,1-3.32-1.77c-.58-1.91-1-3.86-1.5-5.77a11.11,11.11,0,0,0,4.06-2.66c-4.82-.6-4.36,7-9.41,5.7-.64-1.95-1.32-3.89-2.07-5.8-2.73.81-5.51,1.46-8.29,2.09C925.45,157.87,926.36,154.06,928.39,150.88Zm-5.54,8.31c-.84,1.21-2.87-.19-1.9-1.36S923.84,158,922.85,159.19ZM908.1,226.91c-.28-1.65-.79-3.23-1-4.87a16.13,16.13,0,0,1,3.61-3.53c.24,1.68.44,3.36.61,5.06A26.4,26.4,0,0,0,908.1,226.91Zm4.59-11.54c-2.31-1.43-4.39-3.2-6.81-4.43,1.74-1.46,3.51-2.89,5.37-4.2C910.58,209.78,911.6,212.57,912.69,215.37ZM869.4,103.74c3.33.24-1.62,3,0,0Zm-13.53-2.1a52.58,52.58,0,0,1,5.47,1.35c.81-2.24,2.79-2.36,4.86-2a9,9,0,0,1-3.28,6.3c-.75,2.56-1,5.23-1.53,7.84h-3.56a37.7,37.7,0,0,1,.61-7.12c.72-1.55,2.25-2.51,3.36-3.77a33.28,33.28,0,0,1-5.29-.35c.74,1.1,1.46,2.21,2.17,3.36-1.44-.51-2.85-1.06-4.25-1.64C854.87,104.26,855.36,103,855.87,101.64Zm1.61,23.11a41.48,41.48,0,0,1,1.75,7.36c-1.19.31-2.36.62-3.52,1-.18.65-.52,2-.7,2.62,1.4,1.06,2.74,2.19,4.07,3.36-.44,1.39-.89,2.77-1.26,4.18l-2.26-2.16a25.78,25.78,0,0,0-5.68,5.2c.34-1.27.7-2.55,1.08-3.81l-2.34-.9c.2-1.86.14-3.74.18-5.61L845.73,134l3.32-2.38c-1.45-.37-2.89-.76-4.31-1.15C849.38,129.49,854.29,128.68,857.48,124.75Zm-20.94,154c2.95-1.58.17,3.34,0,0Zm-1-168c1.56-1.32,3.81,1.15,1.59,2.08C835.53,114.08,833.29,111.66,835.55,110.7Zm-17.86,8.56c-1.19,0-2.37,0-3.54.06,1.23-1.28,2.55-2.48,3.85-3.7C817.89,116.84,817.78,118.05,817.69,119.26Zm-7.6,43.93c-.83-2.53-1.9-5.09.26-7.35,1.08,2.38,2.05,4.82,2.95,7.28Zm-.45-14.47c1.23.14,2.47.3,3.72.47-1.09.88-2.22,1.71-3.34,2.54.82.68,1.65,1.35,2.49,2l-4.63,2.1C808.44,153.48,809,151.09,809.64,148.72Zm-3,36c1.39-.5,1.89,0,1.52,1.37C806.74,186.59,806.23,186.13,806.62,184.73Zm-3.79,136.33,2.83.15a10.54,10.54,0,0,1-2.55,8.39C801,327.11,801.86,323.82,802.83,321.06Z"/><path class="cls-1" d="M701.65,173.48c1.2-.55,2.4-1.11,3.64-1.64A20.19,20.19,0,0,1,709,184.77c1.69,1.08,3.41,2.13,5,3.33-1.25-.06-2.49-.13-3.72-.22-.43,3.25-.87,6.64,1.46,9.34a18.9,18.9,0,0,1,5.7.62c3.42,1.27,6.05-2.21,9-3.32,0-1.46.06-2.9.11-4.35,4.13-2,6.25-6.22,6.68-10.6.09-3,2.82-5,3.16-7.8-.67-3.92-1.24-7.91-2.87-11.57-1.68-4,.07-8.26.26-12.34-.14-2.4,1.29-4.43,2.09-6.6a11.32,11.32,0,0,0,5.8-1.61,26.68,26.68,0,0,0-4.08-1.08c1.79-1.61,1.4-3.78.81-5.86a7.62,7.62,0,0,1,4.88-1.87c-.58-1.36-1.13-2.75-1.59-4.15-1.48,0-3.58,1.49-4.36-.43.18-3.31,3.33-5.34,5.36-7.62l-3.66.54c-.45-1.33-.93-2.65-1.4-4,1.6-.16,3.21-.29,4.82-.39-.37.83-.73,1.66-1.06,2.5,1.36,1.1,3.51,1.69,4,3.59.73,2.17-.8,4.14-1.2,6.22,1-.71,2-1.46,2.93-2.23.61,1.1,1.25,2.2,1.92,3.28.57-.76,1.16-1.52,1.75-2.28.88,1.51,1.9,2.93,2.9,4.38,1.23-.56,2.47-1.07,3.75-1.55-.28-1.09-.52-2.18-.76-3.27,2.5-.09,4.73-1.18,7-2,2-.26,4-.19,5.94-.63a11.46,11.46,0,0,0-3.47-4c.89-.94,1.8-1.88,2.71-2.82a15.74,15.74,0,0,1-2-5.25,51,51,0,0,1-5.33.86c-.24-1.18-.46-2.37-.65-3.55a30.61,30.61,0,0,1-3.42-1.91,87.7,87.7,0,0,1,9-4.1c.74-3.37,3.33-5.94,4.14-9.23-.11-5.74.49-11.48-.15-17.2-.32-2.8,1.05-5.55.36-8.31-.9-3.81.16-7.71-.15-11.57-.3-9.66.32-19.33,0-29-.15-2.31-1.47-4.48-1-6.84.14-2.39,1.7-4.75.71-7.13a16.78,16.78,0,0,0-7.58-10.28c-3.76-.93-7.69-.78-11.52-1.14a20.63,20.63,0,0,1-9.75,1.09c-3.5-.77-6.82,1.09-10.31.93-2.27.07-4.5-.54-6.75-.34a25.5,25.5,0,0,0-7.37,4.48c-3.92,6.68-3.25,14.57-4.09,22-1.3,4.9.9,10.11-1,14.9-1.11,2.75,1.05,5.47.57,8.29-.54,4.55.4,9,1.49,13.41.94,3.09-.84,6.31.12,9.43,1.22,3.55-.07,7.44,1.52,10.88s.88,7,.2,10.45c.57,2.75,1.49,5.51,0,8.15a37.16,37.16,0,0,1,.42,10.58c1.19,7,.12,14.18,1.12,21.22-.44,8.36,3.14,17.11-.67,25.11.45,3.11,2,5.93,3.43,8.69-1,1.28-1.93,2.54-2.93,3.77a25.26,25.26,0,0,1-3.67-2.06c-1.55-3-1.9-6.46-3.38-9.49a45.17,45.17,0,0,0-4.48-3.21c-.18,1.69-.31,3.38-.37,5.08-1.14-1-2.24-2.11-3.33-3.18a24.19,24.19,0,0,0-4.61,8.65C698.93,171.2,700.28,172.34,701.65,173.48ZM761.47,94.9c1.62-.51,2.18,0,1.66,1.67C761.49,97.08,760.94,96.53,761.47,94.9Zm-56,71c3.33,0-1.5,3,0,0Zm4.29,2.76c-.27.8-.8,2.41-1.07,3.21-1.21-.26-2.42-.54-3.6-.82Z"/><path class="cls-1" d="M1150.07,418.9c6.5,1.2,14.09,2,18.43,7.63,3,1.72,6.26,3.31,9.8,2.75,4.09,1.61,7.94,4,12.31,4.81-.71-.92-1.38-1.85-2-2.79.56-2.14,1.58-4.12,2.28-6.21-2.2.65-4.35,1.43-6.46,2.28-4.46-2.39-9.68-3-13.68-6.25-3.3.86-6.19-.51-8.74-2.59,2.23-1.81,5-2.8,7.17-4.67a14.2,14.2,0,0,0-7.28,2.74c-1.53,1.24-3.72.52-5.49.7.9-3.69,5.56-3.17,8.18-5.17-1.6-.15-3.18-.23-4.75-.31-1,2.89-3.59,2.41-5.52.69l4.32-.1-1-1.8c-1.15.51-2.27,1.07-3.4,1.57-2.08.33-4.57-.8-5.82,1.47a30.11,30.11,0,0,0-11.12-5.81c-3.27-.59-5-3.78-7.77-5.29a25.74,25.74,0,0,0,.1-5.19,49.76,49.76,0,0,0,6.82,2,45.16,45.16,0,0,0-3.15-3.59c7.67-1.47,15-4.26,22.32-7.06,6.74-.79,13-4.85,20-3.51,1.76-1.92,4.13-2.94,6.46-4,0-.64.13-1.91.17-2.55-1.32.66-2.61,1.35-3.89,2-.82-.88-1.27-2.17-2.41-2.63-3.42-1-6.79-3-10.34-1.37a10.46,10.46,0,0,1,5.6-2.8c-.2-1.45-.39-2.89-.53-4.33a14.8,14.8,0,0,0-8.05-1.23c-.86-1.17-1.57-2.43-2.32-3.65.61-1.77,1.2-3.54,1.76-5.33-3.31-1.61-6.89-2.62-10.44-1.09l1.17-3c2.74,0,5.27-1.35,8-1.06-.12-1.8-.31-3.58-.45-5.36,1.12-.61,2.29-1.15,3.39-1.84,1.82-2.73.56-6.43,2.91-8.89.67-1.38,2.19-1.77,3.47-2.41-.24-1.3-.47-2.59-.71-3.87,1.25.26,2.52.5,3.81.73a47.1,47.1,0,0,0-5.82-6.78c1.41-.15,2.84-.28,4.29-.42a25.47,25.47,0,0,1,2.3-5.77c-.7-1-1.38-1.93-2-2.89,2.08-2.42,5.83-2.08,7.7-4.66.48-2.84-.55-5.72.08-8.57l-3.38,1.15c-.43-.92-.84-1.85-1.23-2.76,2,.18,4.08.43,6.14.59.54-1.57,1-3.16,1.54-4.74,1.93-.08,4.58,1.57,5.81-.65,6.37-6.6,5-16.77,10.3-24,1.07-5.26,5-9.75,4.73-15.31-.13-2.09,1.82-3.79,1.38-5.91-.58-2.39-3.1-3.88-3.19-6.41.12-1.53-1.08-2.39-2.08-3.29,3.67-1.88,3.62-6.8,5.47-10.1a15.39,15.39,0,0,0-7.51,8,20.27,20.27,0,0,1-6.75,9,32,32,0,0,1-1.58-5.22l-2.05,1.23c.77,1.33,1.59,2.64,2.32,4-2.23-1.2-4.32-2.6-6.56-3.74,1-.42,2-.83,3.06-1.24a22,22,0,0,1,0-7.55c1.44.45,2.89.9,4.35,1.37.37-1.92.71-3.85,1-5.79-1,.08-2,.18-3,.29,2.28-.86,4.71-2.37,5.78-4.62-2.07-2.43-5.7.08-6.94,2.3l-3.59-.64c-.55-3-.15-6.46-2.44-8.86l2.83,2c0-.71-.09-2.12-.13-2.83,2.46-.79,4.91-1.62,7.37-2.44-.38,1.07-.74,2.14-1.09,3.22,1.21-.26,2.44-.52,3.68-.76q-.66,1.91-1.35,3.81l-2.8-2.31a40.68,40.68,0,0,1,1.22,4.39c1.17-.32,2.36-.61,3.56-.9l.8,2.91.56.91,1.81-3.88c3.6.79,6.65,3.7,6.26,7.62,1.45-2.33,2.2-5,3.21-7.5,1.14-.8,2.33-1.52,3.51-2.3-.62-.87-1.22-1.72-1.84-2.57,2-2.29,2.47-5.81,5.4-7.3,1.94-1.74,5.59-2.83,5.3-6,.25-2.68-2.09-4.52-3.25-6.69q1.81-1,3.72-1.89a94,94,0,0,0,1.65-10c2.34-.4,4.66-.93,7-1.51.56-3.2-2-5.29-4.19-7,5.91-.21,11.06-5.69,11.25-11.54.11-1.81,1.62-3.43,1.2-5.26-1.36-2.11-2.55-4.3-3.85-6.43l2.85-.66a15.56,15.56,0,0,0,1.11,6.15c3.68-5.5,7.18-11.35,8.47-17.93.8-3.36,1-6.82,1.61-10.22a37.24,37.24,0,0,1-4.52-2.11,36.62,36.62,0,0,1-2.61-4.38c-1.17-4.18.59-8.43,1-12.62l-2.55-1.1c2-2.26,1-5.37.92-8.07.67-.37,1.36-.74,2.06-1.1-.38-.81-.75-1.63-1.09-2.44-2.65,5.2-8.11,10.7-14.41,7.87,2.38-3.25,5.08-6.45,5.86-10.54a44.36,44.36,0,0,0,4.77-1.8,28.29,28.29,0,0,0-7.83-1.41c2.71-2.68,6.62-3.12,10.11-4.22-2-1.42-4.09-.56-6,.54a40.51,40.51,0,0,1-.37-5.82c1.22,0,2.44,0,3.69.11a51.15,51.15,0,0,1,3.75,4.87,28.15,28.15,0,0,0-1.67,7.64c3-3.55,3.89-8.1,4.44-12.6-1.66-.34-3.75.27-4.85-1.31s-3.15-1.57-4.8-2.08l-1.25-2.69c1.62.58,3.21,1.27,4.81,2,.45-4.23-.34-8.63,1.28-12.66a47.73,47.73,0,0,0-9-3.66c-4.75-2-9.05-5.91-14.55-5.06-7.39-1.06-12,5.59-17.39,9.28a88.39,88.39,0,0,0-5.39,9.6c-2.24,8.1-7.36,15.3-8,23.84-.64,4.22-3.67,7.73-3.81,12s-2.22,8-3.07,12.08c-1.3,5.72-3.45,11.23-4.58,17,.4,5-2.12,9.64-2.28,14.6-.7,6.4-3.85,12.16-5.37,18.35-.47,3.63-3.65,6.2-3.77,10,1.13,10.83-3,21.39-7.07,31.25-2.63,7.47-6.94,14.21-9.33,21.76-.77,3.76-1.91,7.53-4.27,10.63a22.63,22.63,0,0,0-4.43,9.41c-.67,3.92-3.38,7.07-4.28,10.91-.83,2.59.86,5.29.21,7.9-2.51,4.59-6.47,8.56-7.46,13.87-1,4.66-2.53,9.28-2.35,14.11-2,4.43-4.44,8.68-6.24,13.22-.68,2.2-2.86,3.32-3.92,5.22-1,3-1.54,6.18-2.7,9.15-1.51,3,.05,6.5-1.57,9.44-3.32,8.11-8.47,15.31-11.24,23.64-2,1.42-2.45-1.93-3.93-2.66-4-1.85-8.17-3.25-12.62-2.72-1.73-2.81-3.85-5.52-7.34-6,.78-.65,1.57-1.31,2.37-2a41.88,41.88,0,0,0-6.07-2.18c-4.37-1.13-8.13-3.71-11.67-6.4-3-.23-6.06-.45-8.63-2.17-2.87,2.07-6.59.85-9.29-.9-1.85-1-.76-3.48-1.16-5.15-2.77.2-4.42,3.32-7.32,2.79-2.81.08-3.61-3.28-5.8-4.44-2.54-1.35-2.59-4.55-4.13-6.7-1.81,1.56-2.88,5-5.78,4.5s-6-.68-8.56-2.29c-1.63-2,.19-4.45.82-6.5,0-4-4.13-5.9-6.22-8.78.38-2.86,3.44-1.07,5.27-1,.14-1.9.31-3.8.55-5.68,1.37-.64,2.77-1.21,4.18-1.78,3.44-7.39,3.2-15.69,4.81-23.54,1-3.06-3-5.39-1.43-8.38,1.27-2.8,3.31-5.17,5-7.74-.07-3.85-2.71-8.06-.48-11.64,2-3.47.37-7.93,2.6-11.31a30.69,30.69,0,0,0,4.39-9.59c1.36-2.48,3.52-4.49,5-6.9,7.53-1.84,14.9,1.88,22.44,2.14a11.85,11.85,0,0,0,7.64-.31c.56-1.44,1.08-2.89,1.54-4.36a67,67,0,0,0,6.69-1.44c3.92,5.23,13.55,6.43,16.76-.07a17.07,17.07,0,0,0,5.66-1.37c.63-1.49,1-3.08,1.54-4.61-1.16-.25-2.3-.49-3.43-.75,1.77-5.45,6.41-8.73,10.62-12.22-.3-2.08-1.57-4.21-.6-6.27.5-1.84,1.78-3.33,2.41-5.12A51.29,51.29,0,0,0,1101,189c-2.8-3.56-7.83-3.74-11.81-5.11-8.34,1-15.66-4.1-23.91-4.15-7-.2-14.94-2.63-21.1,1.94a14.28,14.28,0,0,0-4-5c-.27-1.84-.57-3.67-.94-5.49-.6-.71-1.21-1.39-1.78-2.1,2.14-2.8,1.75-6.64,4.12-9.29,2.37-3-.41-7.52,2.32-10.44,4.38-8.47,4.19-18.37,6.77-27.4,2.1-3.7,2.61-8,3.76-12a108.73,108.73,0,0,1,4.83-14.26,10.71,10.71,0,0,1,5.39-4.72c3.87-1.71,7.69,1,11.5,1.71,2.57,1.39,5.58-.39,8.13.94a19.44,19.44,0,0,0,7.05,1.93c5.89.15,11.09,3.64,17,3.8,3.6.07,7,1.41,10.27,2.79a75.8,75.8,0,0,1,15.76,2.36c5.42-1,11.2,0,16.31-2.52a21.71,21.71,0,0,0,7-9.71c.51-4.69,2-9.13,3.45-13.58,1.56-3.5,0-7.35.78-11-.17-4.28-1.7-8.84-5.06-11.69-5-5-12.64-4.52-18.8-7.17-3.65-1.54-7.68-1.42-11.4-2.66-6-2.15-12.47-2.56-18.63-4.21-7.42,0-14.28-3.37-21.67-3.29-4.66-1.76-9.69-1.64-14.54-2.54a28.64,28.64,0,0,0-11.69.65c-5-.8-9.75-4.14-14.85-1.78-4-1.5-8.23-2.18-12.13-3.9-3.84.29-7.53,1.48-11.33,2a27.52,27.52,0,0,1-3.74,7.32c-2.77,3.63-2.26,8.55-4.46,12.44-2.21,3.67-1.42,8.18-2.91,12.1-2,4.68-2.16,9.83-3.08,14.79,0,5.56-2.2,10.83-2,16.4-1,5-2.31,10-2.88,15.15-.3,3.67-3.06,6.63-3.14,10.33-.84,6.65-3.59,13-2.81,19.8-.86,3-2.25,5.92-1.82,9.16.42,3.67-2.59,6.48-2.92,10,.62,5.09-.39,10.44,2,15.18a20.6,20.6,0,0,0-4.07,2.81,8,8,0,0,0-.36,4.62c-4.15,1.56-2.56,7.1-1.7,10.43-1.9,1.26-4.08,2.51-4.89,4.77-2.59,4.56-.73,10-2.46,14.84-2.56,6.56-2.87,13.64-3.92,20.53.69,4.77-1.88,9.12-2.76,13.7-3,7.05-4.24,14.69-5.54,22.19.53,3.85.51,7.88-1.92,11.13.53.9,1.07,1.81,1.62,2.72-4.95,4.89-5.6,12.21-5.84,18.79-1.49,3.52.31,7.43-1.44,10.81-1.46,3.8-1.94,7.89-3.21,11.75-.36,4.14,1.68,9-1.66,12.35-.82,4.38-1.82,9.17,1,13.07a14.7,14.7,0,0,0-5.54,6.28c1.46.67,2.94,1.31,4.42,2-1.34,1.76-2.7,3.5-3.89,5.36,4,2.45,7.74,7,13,6,3.6.23,8-.09,10.16,3.46a12.34,12.34,0,0,1,11.32.4c1.82.79,3.1-.85,4.49-1.76.3-3.63-2.28-6.47-3.57-9.65-2.54-.61-5.2-.7-7.73-1.38,1.86,2.34,4.75,2.87,7.59,3q-.22,1.54-.39,3.12c-3.75-.58-7.33,1.64-11,.8-1.79-1.21-.49-3.18-.25-4.8.69-1.74-.22-3.55-1.47-4.75a12.11,12.11,0,0,0-5.32-.29c0-.81,0-1.63,0-2.43l4,1.1a33.39,33.39,0,0,1,2.93-2.65c1.88-.15,3.77-.11,5.65-.44l-2.09-1.92c1.46-2.89,2.7-5.89,4.77-8.43,1.13.46,2.29.93,3.46,1.37a9.06,9.06,0,0,1,5.72-6.18,19.43,19.43,0,0,1-4.41-4.73c2.37.54,4.73,1.23,7.13,1.74-1.39-2.72-4.21-3.27-6.93-2.33,1-1.21,2-2.37,3.1-3.54-.68-1.32-1.35-2.64-2-4l-3.29,1c1.87-2.5,4-4.93,7-5.94,1.55,2.7,3.91,4.87,5.3,7.68,1.15-.64,2.3-1.28,3.5-1.87-.63,3.36-.3,6.91,1.86,9.7,2,2.44,2.34,5.62,3,8.62-2.24-1.57-4.38-3.28-6.76-4.62.1,1.16.21,2.33.34,3.5q-3,1.32-5.93,2.88c-.85-.28-1.68-.56-2.51-.82a6.8,6.8,0,0,0-1.52-5.61c-.36,2.11-.2,4.28-.69,6.38a22.33,22.33,0,0,1,3.9,3.38l-1.63.64a62.91,62.91,0,0,0-6.23-2.17c-.48,1.63-.93,3.27-1.46,4.89-1.59-2.22,0-5-.15-7.42-2.49,2-3.09,5.39-3,8.45l4.09.6c.42.63,1.24,1.91,1.65,2.55.15-.75.44-2.27.59-3,1.94.36,3.88.68,5.81,1.19a10.61,10.61,0,0,1-6.52,2.61c3.86,1.66,5.8,5.77,9.59,7.5-.34-2.7-2.78-4.09-4.71-5.61l3.6-.39a14.78,14.78,0,0,0,5.24,5.47,18.22,18.22,0,0,0,5.46-3.83c-1.24-.66-2.46-1.35-3.66-2a33.8,33.8,0,0,1,6.29-.51c.1,1.6.26,3.21.47,4.81l1.94,1.24,1.46,2a26.8,26.8,0,0,0-5-2.29c.27,1.34.58,2.68.93,4-3.88,0-7.2-2.67-11.08-2.06,2.09,1.61,4.3,3,6.46,4.59-.78.77-1.59,1.49-2.35,2.26a49.21,49.21,0,0,0-5.19-.85c.92.45,1.87.88,2.84,1.29-1.85,4.35,3.31,6.82,6,9.18,1.89,1.47,3.81-.53,5-1.89,1.67,1.46,3.42,2.83,5.18,4.22a30.2,30.2,0,0,1,4.61-3.22,7.89,7.89,0,0,1,6.44,1.55c3,2.9,7.37,3.64,11,5.5,3.14-1.19,5.54-3.57,8.3-5.39,3.8-1.19,7.87-1.3,11.32,1,0-1.36-.08-2.72-.07-4.07-1.16.39-2.3.84-3.47,1.11-5.94-1.23-11.8-3-17.91-3-2.65-1.8-4.63-4.35-6.83-6.63,1.35.12,2.72.25,4.09.36,0,1.12.07,2.25.15,3.38l2.93.79c-.57-1.36-1.15-2.7-1.72-4a48.87,48.87,0,0,0,5,3.53c.23-1.6.46-3.2.68-4.79,1.28,0,2.58,0,3.88,0-.85.76-1.69,1.53-2.52,2.29a20,20,0,0,0,8.81-2.17l.2,2.59a50.28,50.28,0,0,0-5.53,3.28c1.6-.12,3.21-.33,4.82-.57a52.8,52.8,0,0,0,3.28,4.36c.13-1.49.23-3,.32-4.46,1-.89,2-1.78,3-2.65-.24,1.17-.47,2.34-.69,3.52,1.84-1.39,3.43-3.88,6.07-3.28l-2.62,1.92c-.23,1.12-.45,2.25-.64,3.38,3.35-.52,6.41-1.71,7.95-5l-1.42-.09c.08-.48.23-1.45.3-1.93,3.1,1.16,6.31,2,9.48,3-2.41,2.85-6.37,2.78-9.3,4.7a31,31,0,0,0,10-2l2.73,2.15a64.42,64.42,0,0,0-6.52,0c-1.49.77-1.75,2.65-2.54,4a47.36,47.36,0,0,0-5.9-.85c1.87,1.32,3.86,2.48,5.75,3.8a36.51,36.51,0,0,0,4.25-.52,18.75,18.75,0,0,1-1.59-5.66l2.51.43c-.05,1-.1,2-.16,3,1.11.71,2.21,1.44,3.34,2.17-.21-1.12-.41-2.22-.62-3.32,1.23.38,2.47.77,3.74,1.14.24-1.22.5-2.44.76-3.66l2.61,3c2.37-1.57,4.9-2.87,7.25-4.47a60.68,60.68,0,0,1-1.4,10.22c-1,3.92-.48,8-.53,12a23.59,23.59,0,0,1,8,5.44c3.8,4.17,10.45,3.87,14.86.87,7.09-1.1,14,1.94,20.81,3.46C1139.71,412.46,1143.58,419,1150.07,418.9Zm53.18-193.85q-1.32-3.45-2.54-6.91C1203,219.72,1204.58,222.31,1203.25,225.05Zm-2.25-1.48c-1,1.56-3.57,0-2.24-1.51C1199.68,220.43,1202.25,222.09,1201,223.57Zm-2.55-3.92c-1.7,0-1.69-2.59-1-3.63C1199.2,214.48,1199.24,218.84,1198.45,219.65Zm-13.9-93.85c3-1.53.12,3.33,0,0Zm-3,86.15,3.69.87c-1.55-2.73-2-5.85-3.18-8.73a72.05,72.05,0,0,0,6.12-4.2c.92,2,2.77,3.13,4.56,4.3a42.45,42.45,0,0,1,4.56,7.27l-1.55,2.5c-2.38-1.39-2.23-4.42-3-6.74l-3-1.65c.12,1.35.27,2.69.46,4l-3.58.31c-.08.58-.23,1.74-.31,2.32l4.36.06c-2.12,2.42-5.34,3-8.11,4.39l-2-2Zm-5.09,9.9q2.48-.84,1.72,1.57Q1175.67,224.28,1176.46,221.85Zm-.05,83.49c.23,1.73.34,3.48.45,5.23l-2.56-.34A17.25,17.25,0,0,1,1176.41,305.34ZM1156,346.67c1.87-.93,2.55,3.16.8,3.43A2.34,2.34,0,0,1,1156,346.67Zm-.57,25c1.6-.52,2.17,0,1.71,1.67C1155.53,373.88,1155,373.33,1155.45,371.7Zm-3.07,6.66a44.08,44.08,0,0,0,4.83-.55,29.69,29.69,0,0,0,5,3.65c-3.93-.23-7.87-.12-11.79-.38C1151.08,380.17,1151.72,379.26,1152.38,378.36Zm-1.81-28.45q2.4-.78,1.68,1.67C1150.6,352.08,1150,351.53,1150.57,349.91Zm-3.63,38.39c.92-1.1,1.72-2.31,2.59-3.46.81.62,1.63,1.24,2.48,1.87a59.37,59.37,0,0,1,6.63-2.5c-5.18,4.06-11.78,5.67-17.76,8.18C1141.77,389.64,1144.89,389.69,1146.94,388.3Zm-15.46,6.63c3.36.24-1.59,3,0,0ZM1085.55,220.8c1.42-.5,1.86,0,1.32,1.38Q1084.72,222.93,1085.55,220.8ZM1060.38,43.94c.15.67.46,2,.61,2.66l-3.87-.78c-.11-.37-.35-1.09-.46-1.45Zm-21.9,3.14c3.33.27-1.62,2.94,0,0Zm-8.29,111.24,3.69-.5c-.38,1.63-.7,3.27-1,4.9Q1031.48,160.55,1030.19,158.32Zm4.71,6.4.6-1.46C1039,161.74,1036.66,167.79,1034.9,164.72Zm1.32-10.62q-2.54.78-1.73-1.58C1036.16,152,1036.73,152.53,1036.22,154.1Zm-3.36-14.62.24-1.56c1.07.42,2.16.84,3.24,1.29Zm-5.17-95.84c2.25,1.54,4.85,2.5,7,4.18a7.1,7.1,0,0,1-4.41-2.11l-3.87,1C1026.84,45.71,1027.26,44.67,1027.69,43.64Zm-2,121c.78,2.72,2.14,5.23,2.9,8a17.65,17.65,0,0,1-6-2.56l2.71-3.06c-1.73-.5-3.46-.9-5.18-1.32A39.86,39.86,0,0,1,1025.71,164.65Zm-6.14-1.47c3.34.08-1.5,3,0,0Zm-32,206.63c1.63-.55,2.18,0,1.66,1.63C987.58,372,987,371.43,987.57,369.81Zm-18.13-87.59q2.45-.79,1.71,1.6C969.49,284.35,968.92,283.81,969.44,282.22ZM973,354.79c-2.19,2-2.92-1.14-3.7-2.69C970.93,352.47,974.21,352.14,973,354.79Zm15.39-26q2.43-.72,1.67,1.73C988.42,331,987.86,330.38,988.38,328.76Zm15.82-15c-2.37,2-3.66-1.43-4.76-3C1001.27,311.09,1004.78,310.86,1004.2,313.73Zm-1,46.71c-.39,1-.76,2-1.12,3.08l-2.09-.37-.84-2.76Zm1.74-7.29c-2.09,0-4.39,0-5.34-2.24,1.62,0,3.25.14,4.89.32l.72-2.72C1005.17,350.05,1005.07,351.6,1005,353.15Zm5.26,18.12c-1.41.4-1.9-.1-1.46-1.49C1010.18,369.36,1010.67,369.86,1010.25,371.27Zm2.34-23.38c1.61-.49,2.17.09,1.7,1.72C1012.66,350.1,1012.1,349.52,1012.59,347.89Zm10.33-.16c-1.63.52-2.18,0-1.66-1.65C1022.87,345.55,1023.43,346.1,1022.92,347.73Zm8.69-1.74-3.75-1.1c-.09-.55-.26-1.64-.35-2.19C1029.16,343.43,1031.3,343.84,1031.61,346Zm-6.12,26.18c3.34.17-1.58,3,0,0Zm5.16,2.14c1.17,3.49-2.68,2.84-4.86,3.09C1026.84,375.65,1028.95,375.22,1030.65,374.31Zm-2.79-19.14a21.77,21.77,0,0,1-4-4.32,30.72,30.72,0,0,0,8,3.77A12.91,12.91,0,0,1,1027.86,355.17Zm13.93,1c-1.41.4-1.9-.08-1.44-1.46C1041.72,354.23,1042.2,354.72,1041.79,356.13Zm12.46,19.15c-1.41.41-1.9-.09-1.48-1.49C1054.16,373.37,1054.65,373.86,1054.25,375.28Zm23.28.72c3.33.11-1.55,3,0,0Zm26,28.85c3.32.15-1.55,3,0,0Zm19-5.71.93-1.06C1126.84,397.62,1123.23,402.2,1122.49,399.14Z"/><path class="cls-1" d="M1251,93.67a88.13,88.13,0,0,0,3.69-9.4c-1.46,1.26-2.79,2.64-4.13,4-1.24-.62-2.47-1.21-3.69-1.79.68-.9,1.42-1.79,2.16-2.67-2-1.18-3.54-2.88-5.36-4.24.11,5.17,4.48,8.65,5.28,13.55Z"/><path class="cls-1" d="M1252.84,81.68c.06,3.37,2.92-1.5,0,0Z"/><path class="cls-1" d="M1246.26,96.07a22.88,22.88,0,0,0-6.08.84A8.45,8.45,0,0,0,1246.26,96.07Z"/><path class="cls-1" d="M1422.75,141.31a34.92,34.92,0,0,0-10.69-9.29c-4.44-2.24-8.18-5.72-13.1-6.93-5.89-1.46-11.63-6.27-17.85-3.89-2.93.2-6-1.1-8.8.34-3.88,2.08-6.08,6.16-9.83,8.44-3.42,8.46-10.53,15.11-12.84,24.07-4.15,8.55-9.5,16.59-12.44,25.7-1.25,6.26-5,11.59-7.44,17.36a62.72,62.72,0,0,1-3.87,11.16c-1.71,3.76-1.55,8.05-2.75,11.92-2,3.4-2.16,7.41-2.69,11.21-5.62,8.29-8.24,18.18-13.91,26.45-2.18,2.79-2.49,6.55-4.67,9.33-2,3.06-4.93,5.78-5.47,9.59-1.78,8.18-4.61,16.07-6.82,24.13-4.19,8.54-7.73,17.69-14.3,24.75-1.95,2-2.38,4.92-3.49,7.41-2.19,4.88-4.91,9.54-6.55,14.66-3.14,8.29-6.51,16.48-8.73,25-1.37,4.72-4.55,8.66-5.54,13.49-1.82,5-5.74,8.91-6.91,14.13-1.6,4.86-4.83,9-6.32,13.89-1.15,4-2.55,7.87-4,11.74a61.37,61.37,0,0,0-5.68,12.28c-1.16,0-2.32,0-3.45,0-.26-2.49.71-4.72,1.68-7-2,.43-3.19,2.05-4.2,3.71-4,.19-7.82,1.53-11.71,2.3-2.56-.34-4.24-2.73-6.83-2.94-2.18-.66-4.9-.58-6.21-2.75-1.2-1.93-3.54-2-5.5-2.54,0,1.23.07,2.47.13,3.71,2.46,1.17,4.72,2.72,7.07,4.11,2.06,1.29,4.63,1.76,6.27,3.68,1.93,2.22,5.19,2,7.52,3.57,4.13,2.11,8.14,4.5,12.55,6,1.8-.8,3.45-3.21,5.62-2.18a13.79,13.79,0,0,1,2.91,2.07c2.85,2.51,6.73,3.09,10,4.9,5.11-.3,9.46,2.61,14.24,4a48.54,48.54,0,0,0,14,4.88c3.62,1.91,7.25,4,11.33,4.85,5.7.07,9.69,5.42,15.39,5.65,5.18,2.28,9.94,5.44,15.21,7.58,5.53,2.32,10.24,6.44,16.16,7.78,2.83.85,4.34,3.74,6.9,5.09,4.18,2.14,7.35,6.27,12.22,6.94,4,.29,8,1,11.95,1.47,3.13-.44,5.88-2.32,8.35-4.22,3.69-2.79,3.78-7.91,6.47-11.43,6.07-7.6,9.72-16.79,12.76-25.94-.36-5.68-2.35-11.93-7.61-14.88-12-6.72-24.67-12.61-38.3-14.79-4.89-3.51-10.57-5.4-16.37-6.73-3.53-.47-5.63-3.52-8.11-5.71-3.05-2.73-5.07-6.3-7.55-9.49-.33-3.7-.14-7.42-.33-11.12,4.17-7.1,8.75-14,12.94-21.1,2.3-3.47,2.69-7.74,4.58-11.4,1.73-3.21,2.38-6.84,3.87-10.16,1.09-6.75,5.32-12.45,6.93-19.07,1.56-6.38,4.74-12.2,6.46-18.52,2.41-8.07,6.77-15.38,9.6-23.29,1.85-8.82,6.09-16.92,8.58-25.56.66-3.59,2.69-6.94,2-10.68,3.49-3.48,7.14-7.06,8.65-11.91l2.88-.37c-.2-1.48-1-3.07-.1-4.48,4-8,8.31-15.8,12.22-23.81,3.19-3.69,4.75-8.4,7.92-12.1,4-4.91,6.08-11,9.58-16.29,2.31-5.89,3.45-12.23,6.46-17.84,2-4.11,2.7-8.76,5.35-12.54C1422.08,154.42,1424.14,147.74,1422.75,141.31Zm-68,309.43c1.39-.47,1.87,0,1.44,1.43C1354.8,452.61,1354.33,452.14,1354.78,450.74Zm-25.26,5.09c3.33.09-1.51,3,0,0Zm36.37-324.55c-1.64.51-2.2,0-1.66-1.66Q1366.63,128.84,1365.89,131.28Zm4.57,20.49c3-1.52.11,3.33,0,0Zm1.28-3c3-1.55.15,3.33,0,0Zm6.41-15.06q-2.46.76-1.65-1.68C1378.09,131.51,1378.65,132.07,1378.15,133.71Zm.63,90.11c3-1.57.17,3.34,0,0Zm7.68-82c3-1.52.11,3.33,0,0Zm-2.73,13.68c-1,1-2.85-.48-2-1.61S1384.54,154.35,1383.73,155.48Zm-.33-9.72q2.42-.8,1.66,1.65Q1382.6,148.21,1383.4,145.76Zm1.15,14c3-1.56.16,3.34,0,0Zm1.84-14c3.31.16-1.57,3,0,0Zm1.44,19.78q-2.13.66-1.44-1.44Q1388.46,163.51,1387.83,165.61Zm4.26-2.18q-2.48.8-1.65-1.65Q1392.85,161,1392.09,163.43Z"/><path class="cls-1" d="M690.14,125.29c-.68,1.37-1.35,2.75-2,4.14l-4.2-.27c1,1.64,2.21,3.21,3.21,4.89a77.2,77.2,0,0,0-7.13-3.37c0,1.68,0,3.36,0,5-3.92-1.24-8.12-2.52-12.21-1.32.08.91.24,2.72.33,3.63-2.36-.34-4.53.34-5.55,2.64C665,144,668,147,672.24,147.56c.32,1,.66,2,1,2.94-1.07.68-2.13,1.38-3.18,2.08,3.7,3.43,7.18,7,11.76,9.29,0-.87-.08-2.63-.1-3.5a8.26,8.26,0,0,0,8-2.42c1,1.29,1.9,2.65,2.77,4,2.65-.21,4.92,1.26,7.22,2.36q.78-1.88,1.65-3.72c-.58-1.63-1.63-3.23-1-5,1-3.55-1.46-6.86-.62-10.45a26,26,0,0,1-3.13-1.55c-.21-1.93,2.09-2.12,3.28-3-.08-.83-.23-2.49-.3-3.32-1.34,1.12-2.61,2.32-3.9,3.48.72-2.8-.13-5.42-1.36-7.92a58.31,58.31,0,0,1,3.11-5.07c-1.44-1.29-2.78-2.69-4.18-4-2.42.6-4.85,1.15-7.28,1.7C687.31,124.15,688.74,124.68,690.14,125.29Zm-1.87,28.17q-2.44.77-1.65-1.67C688.24,151.27,688.79,151.82,688.27,153.46Z"/><path class="cls-1" d="M758.54,126.91c.1,3.36,3-1.54,0,0Z"/><path class="cls-1" d="M654.62,130.73c-.39,1.4.12,1.87,1.52,1.39C656.52,130.72,656,130.25,654.62,130.73Z"/><path class="cls-1" d="M754.46,131.77c-.49,1.65.08,2.23,1.69,1.75Q756.82,131,754.46,131.77Z"/><path class="cls-1" d="M852.59,133.93c-1.67,2.81,3.4.19,0,0Z"/><path class="cls-1" d="M941,149.89a2.22,2.22,0,0,0-3.44-1.05C936.45,150.82,940.67,151.94,941,149.89Z"/><path class="cls-1" d="M803.7,150.71c.22,3.34,3-1.55,0,0Z"/><path class="cls-1" d="M936.11,152.6q.75-2.45-1.68-1.67C933.91,152.56,934.47,153.11,936.11,152.6Z"/><path class="cls-1" d="M939.82,154c1.25.79,4.45-2,2.9-3C941.48,151.35,939.55,152.48,939.82,154Z"/><path class="cls-1" d="M941.54,157.91c.22-.59.68-1.76.9-2.35l-3.45-1a42.65,42.65,0,0,1-3.27,5A43.14,43.14,0,0,1,941.54,157.91Z"/><path class="cls-1" d="M948.83,160.26c.78-1.14-1.13-2.61-2-1.57S947.89,161.24,948.83,160.26Z"/><path class="cls-1" d="M934.4,160c-1.55,3,3.32.14,0,0Z"/><path class="cls-1" d="M947.78,162.89c.15,3.34,3-1.59,0,0Z"/><path class="cls-1" d="M692.77,200.92l1.16-3.51c-1.21-.34-2.41-.66-3.6-1C691.11,197.94,691.92,199.44,692.77,200.92Z"/><path class="cls-1" d="M1185.75,221c.1,1.38.78,1.6,2,.64C1187.66,220.25,1187,220,1185.75,221Z"/><path class="cls-1" d="M937.64,226.18c.9.41,1.83.82,2.77,1.22-.84-1.37-1.7-2.72-2.65-4Z"/><path class="cls-1" d="M889.69,227l-.16,1.6C892.27,230.58,892.45,224.08,889.69,227Z"/><path class="cls-1" d="M919.52,227.84c-1.34.67-1.35,1.35,0,2C920.8,229.18,920.81,228.51,919.52,227.84Z"/><path class="cls-1" d="M1196.64,230.9c1.31,1.31,4.53-1.56,2-2.16C1197.46,228.43,1195.62,229.63,1196.64,230.9Z"/><path class="cls-1" d="M912.71,230.74c.08,3.34,3-1.53,0,0Z"/><path class="cls-1" d="M906.71,240.81q-2.8,1.42-5.55,2.94l3.74.43C905.52,243.06,906.12,241.94,906.71,240.81Z"/><path class="cls-1" d="M898.19,244.13c.43-1.42-.06-1.9-1.45-1.43C896.3,244.1,896.78,244.58,898.19,244.13Z"/><path class="cls-1" d="M908.71,242.52l-1.07,1.33C908.42,247.23,912.47,241.57,908.71,242.52Z"/><path class="cls-1" d="M1191.3,242.86q-.81,2.43,1.68,1.62Q1193.73,242.05,1191.3,242.86Z"/><path class="cls-1" d="M889,257.75a29,29,0,0,1,2.24-4.91c-1.4-.6-2.76-1.24-4.1-1.89C887.79,253.21,888.52,255.44,889,257.75Z"/><path class="cls-1" d="M889.25,262.82c1-1.15-.46-3.67-2-2.78C886.18,261.15,887.81,263.62,889.25,262.82Z"/><path class="cls-1" d="M893.11,263.59c1.87.22,3.75.4,5.66.54-.89,1.3-1.76,2.59-2.61,3.9l2.8-1c-.14-1.46-.22-2.91-.22-4.37A39.32,39.32,0,0,0,893.11,263.59Z"/><path class="cls-1" d="M893.43,268.83c-.45,1.4,0,1.88,1.44,1.42C895.31,268.85,894.83,268.37,893.43,268.83Z"/><path class="cls-1" d="M902,284.22c.94-1.44,1.85-2.9,2.77-4.36-.83-1.28-1.62-2.56-2.42-3.84-1,.75-1.88,1.51-2.79,2.29l3.5.07A9.89,9.89,0,0,0,902,284.22Z"/><path class="cls-1" d="M900.41,281.2c.36-1.41-.16-1.91-1.55-1.51C898.48,281.09,899,281.59,900.41,281.2Z"/><path class="cls-1" d="M833.37,290.32c-1.09,1.43,1.51,2.53,2.4,1.37C836.82,290.27,834.22,289.23,833.37,290.32Z"/><path class="cls-1" d="M835.83,296.74c-.47,1.39,0,1.88,1.42,1.47C837.7,296.79,837.23,296.3,835.83,296.74Z"/><path class="cls-1" d="M838.44,298.11c-1.6,3,3.32.23,0,0Z"/><path class="cls-1" d="M841.67,302.05c-1.78-1.34-4.09-1.19-6.17-1.51A7.75,7.75,0,0,0,841.67,302.05Z"/><path class="cls-1" d="M844.11,305l-2.65-.19c-.74,1.27-1.49,2.53-2.29,3.76.51,1.49,1,3,1.66,4.43-.12-1.26-.25-2.51-.4-3.76,1.11-.77,2.26-1.49,3.43-2.2C843.92,306.57,844,305.55,844.11,305Z"/><path class="cls-1" d="M829.53,308.84q.73-2.43-1.68-1.72C827.37,308.75,827.92,309.33,829.53,308.84Z"/><path class="cls-1" d="M834.4,313.69c.52-1,1.09-1.91,1.56-2.9-.66-2.45-3.22-.52-4.85-.45C832.16,311.49,833.28,312.59,834.4,313.69Z"/><path class="cls-1" d="M825.85,313.38a7.88,7.88,0,0,0-.72,4.87,64.12,64.12,0,0,1,4.11-5.72Z"/><path class="cls-1" d="M846.85,312.5a38.37,38.37,0,0,0-6.63,1.51c.32.82.65,1.66,1,2.49A43.49,43.49,0,0,0,846.85,312.5Z"/><path class="cls-1" d="M838.65,315.06c-1.28.15-2.54.33-3.78.57a24.46,24.46,0,0,0,4.22,3C839,317.46,838.81,316.26,838.65,315.06Z"/><path class="cls-1" d="M823.22,317.4c.49-1.64-.07-2.19-1.69-1.67C821,317.35,821.59,317.91,823.22,317.4Z"/><path class="cls-1" d="M830.36,318.36c-1.49.63-3,1.28-4.42,1.9a46.7,46.7,0,0,1,1.14,6.67C829.94,324.73,827.55,320.71,830.36,318.36Z"/><path class="cls-1" d="M947.51,320.65c0,.69,0,2.07,0,2.76l2.86,0c-.2-.51-.6-1.52-.79-2Z"/><path class="cls-1" d="M836.58,323c-1.26.68-1.24,1.37.07,2.05C837.91,324.35,837.89,323.66,836.58,323Z"/><path class="cls-1" d="M818.72,324.84l.87-4.21-3,.08c0,.73.07,2.19.09,2.92C814.8,325,818.21,326.93,818.72,324.84Z"/><path class="cls-1" d="M813.89,327.81q.82-2.43-1.62-1.63C811.7,327.78,812.24,328.33,813.89,327.81Z"/><path class="cls-1" d="M840,328.64c.5-1.63-.06-2.18-1.67-1.67C837.84,328.6,838.4,329.15,840,328.64Z"/><path class="cls-1" d="M814.13,331.37c.52-1.62,0-2.18-1.67-1.66C811.94,331.33,812.5,331.89,814.13,331.37Z"/><path class="cls-1" d="M839.19,331.67c1.1-1.4-1.39-3.19-2.36-1.69C835.64,331.44,838.14,333.06,839.19,331.67Z"/><path class="cls-1" d="M995.49,330q-.76,2.43,1.7,1.68Q997.92,329.2,995.49,330Z"/><path class="cls-1" d="M998.75,330.62c0,3.3,3.07-1.48,0,0Z"/><path class="cls-1" d="M821.52,333.79c1.5-.08,2.57,1.14,3.82,1.79-.1-.62-.32-1.84-.43-2.46-2-.06-4.07-.07-6.09,0-.43,1.26-.86,2.52-1.26,3.79l2.25,1.06C820,336.4,819.65,334.41,821.52,333.79Z"/><path class="cls-1" d="M1000.74,334c1.25-1.42-1.4-2.67-2.1-1.16C997.38,334.33,999.88,335.34,1000.74,334Z"/><path class="cls-1" d="M1001.49,334.29c-.37,1.66-.64,3.34-.92,5l2.29.3C1002.81,337.7,1003.17,335.63,1001.49,334.29Z"/><path class="cls-1" d="M562.8,374.13c9-3.52,19-7,24.31-15.68,4.06-2.93,8.55-5.3,12.25-8.71a16.44,16.44,0,0,1,13.65-3.3,29.61,29.61,0,0,0,3.55,12.06c1.56,3.15,5.62,2.64,8.54,3.34,4.48,1.29,8.83-1.37,13.37-.87,6.24-1,12.64-.06,18.82-1.53,4.14-.87,8.74-.84,12.22-3.57a14.45,14.45,0,0,0,1.63-13.71c-1.09-2.94-4.29-4-6.55-5.86-.2-2.78,0-5.71,2.29-7.64-1.3-1.31-1.24-3.12-1.32-4.82,2.6-1,2.79-3.65,2.8-6.06.87-1.37,1.78-2.71,2.65-4.08-1.25.24-2.5.51-3.73.8-1.16-1.85-2.29-3.72-3.35-5.63a52.86,52.86,0,0,0,2.16-5.87c-1.69-1-3.35-3.21-5.52-2.16a30.26,30.26,0,0,0-.87,6.5c-.77,2-2.17,3.7-3.21,5.57l1.9,3c-1.64-.25-3.28-.51-4.9-.82,1.4-2.94,2.9-5.83,2.4-9.19l-2.67-.34c.68-1,1.38-2.08,2.06-3.13-1.16-.26-2.31-.5-3.45-.73-.33-1.43-.71-2.83-1.12-4.21-1.51-.53-3-1-4.5-1.53q1.07-.56,2.16-1.08c2.18,1.45,4.09,3.29,6.29,4.72,2.86,1.71,6.14.31,9.22.28-.4-4.16-1.89-8.31-.62-12.46,1.41,0,2.83-.06,4.27-.11-1.29-1.66-2.63-3.28-3.75-5,2.48-.93,5-1.73,7.47-2.73,2-5,1.85-10.34.84-15.47-2.48-3.45-1.47-7.73-.43-11.49-.44-2.36-1.52-4.53-2-6.87a76.86,76.86,0,0,1,1-8.55c.28-3,2.77-5,4.55-7.12,2.07.48,4.67-.17,6.28,1.55,1.89,1.76,2.17,4.48,3.41,6.65,2.3,1.73,5.14,2.62,7.42,4.38a8.87,8.87,0,0,0,4.65,5.35,32.81,32.81,0,0,0-5.38,4.22c.23,4.27-.62,8.72,2.12,12.44,2.09-.06,4.44-1.06,6.24.5,4.35,2.72,4.17,9.07,9,11.08-2.1,0-4.2,0-6.29.12a47.65,47.65,0,0,0,3.38,5c-2-.13-4.42-.58-4.22,2.29,1.76-.06,3.53-.17,5.31-.31,1.62,2.11,3.17,4.29,3.71,7,1.86,2.47,4,4.77,5.15,7.69-2.62.18-5.24.25-7.86.23l-2.49,2.58a94,94,0,0,0,1.85,11.78,66.18,66.18,0,0,1,4.74,15.88C715,333.71,716.65,339.5,719,345c1.47,1.48,3.39,2.59,4.39,4.5.71,1.77.79,3.72,1.46,5.52,4.73,2.4,10.11.39,15.15,1.08,4.23.59,8.29-1.69,12.53-.81,6.61,0,13.57.93,19.89-1.49,3.15-3.73,6.23-8.06,6.41-13.14-1.27-3.31-1.32-6.85-1.34-10.34-3.49-.91-7-1.29-10.18.68,1.2-1.93,2.51-3.79,3.65-5.76.59-2.57,1.94-5.65-.68-7.52.43-.9.87-1.79,1.32-2.68,1.58-.07,3.18-.11,4.79-.17,1.14-4,2.43-8.17,1.26-12.3-.23-7.93.06-15.88-.14-23.81-1.29-6.3-.71-13.06-3.8-18.92l-5.16,1.68c.24,1.22.49,2.44.77,3.66-2.52-1.63-4.83-3.59-7.46-5-3-1.74-6.54-.61-9.81-1a32.92,32.92,0,0,0-14.87,5.64,40.08,40.08,0,0,0-5.41,8.31c.19,4.36,0,8.73,0,13.09a38.56,38.56,0,0,0-5-.06c-3,.59-5.15,3.08-7.49,4.9a64.37,64.37,0,0,0-3.1-11.08c-1-2.63-1.17-5.55-2.61-8l2.2-2.2c-1.7-.28-3.63-.18-4.93-1.48a98.22,98.22,0,0,0-3-11.74c-.3-2.45.22-4.93.13-7.39a35.1,35.1,0,0,1-3.89-7.92l3.26-.68q.48-1.88,1-3.75l-3-1.24c1.06-1,2.22-1.87,3.35-2.79l-3.33-3.5c-.72,1.07-1.44,2.13-2.15,3.2a12,12,0,0,1-2.38-8.26,16.74,16.74,0,0,0,3.67-2.52c-1.8-1.3-4-1.24-6.08-1.25-.07-.57-.23-1.72-.31-2.29,1.41.21,2.83.41,4.27.55A24.15,24.15,0,0,1,700,212.1c-2.64-1.19-6.63-2.89-5.13-6.45a29.78,29.78,0,0,1-3.24-1.19c-1.43-3.25-2-6.94-4.57-9.58l4.11-1.43a26.51,26.51,0,0,0-.73-7.27c2.1-1,2.76-3.19,3.62-5.16-2.27.16-4.53.26-6.79.32.7-.86,1.42-1.71,2.14-2.56-2.95-2.24-5.55-4.67-6.94-8.17-2.43-1.48-3.14-4.3-5.25-6a13.43,13.43,0,0,1-3.41,3c-.53-.71-1.06-1.42-1.57-2.12a4.55,4.55,0,0,0,4-3.31c-2.62-.34-5.24-.54-7.86-.77,1.58-2.18,1.84-4.89,2.64-7.39-1.31-.81-2.57-1.66-3.82-2.52-2.37,1.38-4.91,2.43-7.32,3.74-1.83-2.34-3.1-6.15-6.63-6.07-3.51-1.29-8.37-1.32-10-5.32-1.46-3.43-3.26-6.74-4.47-10.27.29-2.07.36-4.19-1-6,2,1.38,4,3.15,6.57,3.17-.6-1.34-1.23-2.67-1.88-4,1.21.06,2.42.11,3.64.15,1.13-1.36,2.26-2.73,3.34-4.13l1.12.58c-.52,1.23-1,2.47-1.46,3.73a28.41,28.41,0,0,0,4.18,1.16c2,.41,2.87-1.79,4.22-2.81.52,1.33,1,2.67,1.57,4a14.75,14.75,0,0,1,8.24-5.68c.5-1.41,1-2.83,1.55-4.22.69,1.08,1.38,2.18,2.07,3.28,1.63-3.14,4.71-5,7-7.6,1.37-.49,2.86-.17,4.3-.33l2.34-2.77-2.86.07a11.8,11.8,0,0,0,3.35-3.94l-4.71-1.51a49.6,49.6,0,0,1,5.19-.8c-1-.88-2-1.74-3-2.6.14-.53.4-1.59.53-2.12,1.26-.33,2.52-.67,3.78-1,.33-1.66.66-3.32.9-5l3.16-1.43c-.18-5-2.81-9.65-2.08-14.74a56.59,56.59,0,0,1-3.2-11.8c-2.17-2.91-2.5-6.49-3.17-9.93-4.6-13.12-9.45-26.14-15-38.92-1.34-3.27-2.83-7.23-6.45-8.53-2.93-1.41-6.24,0-9.25-.74-1.87-.81-3.76-3.1-5.93-2a26.4,26.4,0,0,1-7,2.06c-4.38,1-8.62-3-12.89-.87-2.24,1.44-4.92.84-7.4,1.2a23.56,23.56,0,0,1-7.76,4.83c-.89,3.15-1.76,6.3-2.66,9.44-.45,3.63,1.19,7.17.81,10.84-.36,5.38,2.72,10.48,1.6,15.9-.75,3-.87,6.22-2,9.16-.06,2.7,2.07,5.32.67,8s.78,5.4,1.43,8c-.17,8.27.45,16.56-.43,24.81-.75,4.33-.64,8.76-.71,13.14-.16,2.53,1.62,4.9.83,7.41-1.15,3.84,1,7.74-.27,11.55-.84,4.07,1,8,.74,12-.37,9.27.12,18.54-.21,27.8.38,8.43.2,17,2.34,25.2a49.07,49.07,0,0,0-.94,17c.39,2.32,1.36,4.6,1.05,7-1.37,8.62-3.31,17.55-1.06,26.21-.42,5.09,1.87,10.08.35,15.08-.92,5,0,10.07-.38,15.1-2.62-8.51-4.44-17.35-4.32-26.28,0-2.41-1.35-4.54-1.66-6.89-.34-3.61-2.5-6.72-2.88-10.32-.32-4.62.27-9.39-1.29-13.84-1-3.42,1-6.62,1.23-10-3-13.61-2.36-27.56-4.48-41.28-2.66-13.71-2.74-27.75-3.18-41.67-1.46-5-.09-10.2-1.51-15.2-1.77-5.64,0-11.71-2-17.34-.5-16.45-6.09-32.62-14.65-46.61-3.58-3.46-5.43-8.4-9.54-11.36-2.55-2.16-4.46-5.1-7.72-6.34-4.09-1.62-6.23-6.05-10.44-7.44-2.66-1.14-5.64-1.37-8.08-3-4.89-2.89-10.75-2.87-15.9-5.08-3.68-1.77-7.91.06-11.59-1.72-6.36-1.52-12.55,1.46-18.9,1.7-2.91,0-5.2,2.08-7.92,2.73-7.14,0-13.19,4.33-19.62,6.8-3.3,1.09-5,4.47-8.25,5.71a14.67,14.67,0,0,0-5.37,3.69c-2.71,3-6,5.29-8.85,8.18-3.13,3-4.93,7-7.18,10.68-3.49,8.83-5.07,18.26-8.1,27.24-.88,2.74-1,5.64-1.73,8.41.36,3.87.81,7.78.91,11.65-2.39,5.73.7,11.59.86,17.42-.41,4.41,3,8.39,1,12.74a28.32,28.32,0,0,1,1.17,11.13c-.62,4.21,1.35,8.07,2.66,11.93a85.66,85.66,0,0,0,2.13,21.3c-.63,7.69,2.43,15,2.26,22.66.39,4,1.9,7.9,1.53,12,.56,7.06,2,14,2.31,21.13,2.55,9.85,3.19,20.06,4.17,30.14.73,3.73,2,7.33,2.7,11.07.28,2.44-.32,5,.69,7.34,2.3,6.62,1.46,13.9,4.62,20.26l-3.64,2.08c1.41,1.25,3.5,1.8,4.58,3.36-.31,3.82.84,7.51.67,11.33A21.35,21.35,0,0,1,458,323.4c.79,3.28,3.47,5.71,4.88,8.74a68.39,68.39,0,0,0,17.94,25.1c2.2,3.17,5.87,4.71,8.45,7.5s6,4.65,8.86,7.18c3.64,2.22,7.71,3.6,11.61,5.28a27.62,27.62,0,0,1,9.72,1.33c3-.57,5.85-1.71,8.89-2,4.2.61,8.35,2.46,12.66,1.61,2.42-.22,3.76-2.53,5.21-4.19C551.72,374.88,557.28,374.3,562.8,374.13Zm187.09-60.06c1.56,1.79,3,3.94,5.52,4.38,4.35.33,8.72-.47,13,.48.15,1.79.55,3.57.57,5.39-1.16,2.55-3.64,3.9-6,5.21a17.74,17.74,0,0,0-5.12-6.22c-.49,2.41,1.25,6.2-1.72,7.29-1.53-2-3.05-4-4.62-5.9l-2.44,2c-.87-1-1.71-2-2.54-3-1,.74-2,1.48-3,2.19-1.07-1.85-2.11-3.72-3.21-5.54,1.63.42,3.25.9,4.89,1.35-1.74-2.26-3.33-4.75-5.88-6.16.59-.57,1.19-1.14,1.8-1.7-1.42-2.33-3.1-5-2-7.8,1.29,1.73,2.66,3.5,2.63,5.78C744.24,313.63,747.29,312.9,749.89,314.07ZM739.76,299l1.28,1.17c-.82,1.2-1.63,2.4-2.42,3.62l-2.79-1.5a33.93,33.93,0,0,1-.06-7l1.44,1C738.68,294,741.69,297.56,739.76,299ZM733,288.34c-.08,1.15-.18,2.31-.28,3.46l3.32.94c-.57,1.16-1.11,2.34-1.64,3.52-1.94-1.87-3.91-3.79-6.84-3.34A16.71,16.71,0,0,1,733,288.34ZM687.42,183q2.43-.8,1.67,1.63Q686.6,185.45,687.42,183Zm-29,112.27c1.15-.77,3.13.94,2.38,2.18C659.64,298.24,657.6,296.53,658.43,295.29Zm-2.88-1.44c3-1.53.12,3.34,0,0Zm-8.11-8.32c1.57-.71,2.34,2,.79,2.42C646.6,288.66,645.86,286,647.44,285.53Zm9.34-173.62c1-1.74,3.16.47,2.12,1.8C657.83,115.4,655.66,113.26,656.78,111.91ZM659.48,324c-1.91-.59.28-2.2,1.33-2.07C663.95,321.43,661.38,325.21,659.48,324Zm-1.56-11.33c2-.65,4-1.24,6-1.9-.49,1.23-1,2.46-1.46,3.7C660.95,313.92,659.42,313.31,657.92,312.66Zm1.31,8.46a10.16,10.16,0,0,1-3.43-5C658.6,316.15,658.69,319.07,659.23,321.12Zm-7.67-18.29c3-1.54.15,3.37,0,0Zm-5.29,27.64-2-1.48,4.84-2.39-1.67-1.41,2.13-3.14c-1.6-.68-3.22-1.31-4.81-2,1.64-.41,3.28-.84,4.93-1.27q-2.25-.86-4.48-1.65a44.31,44.31,0,0,0,6.13-4.59c.2,2.16,1.53,3.81,2.75,5.51a37.27,37.27,0,0,1,1.21,6.57c-3.62.07-1.54-5.43-4.72-6.53a46.06,46.06,0,0,0,2.3,11.69c-1,.56-2,1.13-3,1.72a54.82,54.82,0,0,0,5.86,1.71q-1.49,1.77-3,3.49c.75.66,1.53,1.33,2.26,2l-2.37-.8q-2.1,2-4.35,3.78c-.7-3.79-5.16-2.34-6.93-5a22.53,22.53,0,0,1-1.62-2.6A35.21,35.21,0,0,1,646.27,330.47Zm-2.57,14.26a13.94,13.94,0,0,1-4.94,3.37c1-3.25-.09-6.1-2-8.73C639.2,341,641.39,342.93,643.7,344.73Zm-11-317.44c1.25-.08,2.25-1,3.36-1.48a9.6,9.6,0,0,0-3.14,5l3.92,1.73a5,5,0,0,0-2.8,4.7c-2.62-.89-5.39-1.35-8-.09,2.65,1.46,5.75,1.55,8.68,2.1.74,1.9,1.3,3.86,2.07,5.75-3.15-2.85-7.64-3.33-11.31-5.32-.59,4.09-3.07,8.89-.26,12.58l-3,1c.24,2.94,2.08,5.28,3.83,7.53L623,62.53a28.42,28.42,0,0,1-5.27-11c.18-2.67-.26-5.34.11-8,.5-4.36-.51-8.68-.4-13.05A108.92,108.92,0,0,1,632.73,27.29Zm-20,43.78a25,25,0,0,1,5.67,3.47A27.19,27.19,0,0,1,612.71,71.07ZM612.48,296c1.44-1.19,3.2,1.27,1.58,2.24C612.59,299.52,610.91,297,612.48,296Zm-6.57,36.25c1.35-1.71,3.17-2.95,4.71-4.48,1.13-1.62.13-3.57.07-5.33-.26-6.65.11-13.51,2.48-19.79,1.45,3.73-.95,7.24-.37,11,.68,6.83-1.3,13.84,1,20.5.52,1.4.27,3.87-1.52,4.14-4,.54-6.6,3.8-9.83,5.83A51.58,51.58,0,0,1,605.91,332.27Zm-5.55-98.9c-1.44,1-3.26-1.33-1.78-2.38S601.8,232.34,600.36,233.37Zm-3-17.65c1.65-.49,2.22.06,1.71,1.67Q596.64,218.11,597.41,215.72Zm-1.32,5.44q2.45-.75,1.67,1.65C596.11,223.32,595.56,222.76,596.09,221.16Zm-14.71,95.51,1.11,3.29c-3.32.78-6.5,2.3-9.93,2.49a23.94,23.94,0,0,1-2.55-1.92C574.09,320.26,577.81,318.52,581.38,316.67Zm-97.61-46.48a43.84,43.84,0,0,1,3.21,4.63,56.78,56.78,0,0,1-5.38-2.9C482.31,271.34,483,270.76,483.77,270.19Zm3.53,7.25c-1.64.56-2.2,0-1.68-1.6C487.25,275.27,487.81,275.81,487.3,277.44ZM479.73,279a30,30,0,0,1,7.82,3.75A18.4,18.4,0,0,1,479.73,279Zm9.3,10a20.7,20.7,0,0,1-4.22-5.7A34.17,34.17,0,0,1,489,289Zm-5.38-1.78c1.2-.9,3,.94,2.22,2.15C484.69,290.11,482.75,288.45,483.65,287.22Zm1.89,4.52c3-1.59.21,3.33,0,0Zm6,7.81c-1.2-2.33-3.78-3.18-5.53-5a24.48,24.48,0,0,1,3.59,2c1-.65,2-1.29,3-1.91-.49,1.37-1,2.73-1.52,4.1,2,.18,4,.39,6,.71-.22,1.72-.3,3.45-.43,5.18A12.85,12.85,0,0,1,491.49,299.55Zm2.85-3.59c3.36.14-1.56,3,0,0Zm-.43,22.25c2.44.74,3.91,3,5.37,4.89C497,322.1,495.39,320.13,493.91,318.21Zm4.33-16.58q2.13-.75,1.41,1.38Q497.52,303.78,498.24,301.63Zm11.61,36.58c-1.35.07-2.69.13-4,.16a13.26,13.26,0,0,1,4.39-3.2Zm.92-4.57c-3.9.34-8.62-.81-10-5-1,.34-1.91.68-2.85,1,.8-1.28,1.49-2.63,2.22-4,2.09.59,2.77,3,3.34,4.83,1.79-2.44,4.76-1.54,7.34-1.41-1.61.62-3.27,1.09-4.91,1.59C507.56,331.7,509.2,332.6,510.77,333.64Zm-6.22-6.84c2.07-1.15,4.21-2.16,6.35-3.18,0,.6,0,1.8,0,2.4C508.78,326.23,506.67,326.53,504.55,326.8Zm.93-5.78q2.43-.78,1.66,1.68C505.51,323.21,504.95,322.65,505.48,321Zm12.64,12.66c-.12,1.55-.17,3.11-.16,4.68a19.58,19.58,0,0,0-6.46.82,16.07,16.07,0,0,0,.2-7l3.19.9q-.14,2.49-.06,5A66.2,66.2,0,0,0,519.5,331c2,1.48,4.12,2.69,6,4.34C522.87,335.57,520.49,334.59,518.12,333.68Zm11,3.13c-1.66,1.36-3.73-1.13-1.47-2.05C529.3,333.23,531.35,335.92,529.16,336.81Zm8,8.74a12.93,12.93,0,0,1-5.06-3.12c2.9-.26,5.73-1,8.62-1.27C539.53,342.65,538.31,344.09,537.12,345.55Zm4.14-6.34c-1.6,0-1-2.43.32-2.39C543.18,336.81,542.58,339.27,541.26,339.21ZM540,337.14c-.07-1.23-.1-2.45-.1-3.67l-2.1.83c-.3,1.36-.59,2.72-.86,4.09L533.23,340c.95-2.06,2.1-4.06,2.21-6.38-1,.6-2,1.24-2.95,1.89-.11-.57-.32-1.7-.43-2.27-4.82.57-8.56-3-12.56-5-.67.8-1.33,1.61-2,2.42.18-1.35.38-2.7.57-4l-3.88-.74c-.42-1.49-.2-3.44-1.74-4.32-3.29-2.14-4.24-6.18-6-9.46-1.4-1.22-2.49.55-3.55,1.3-.12,2.77.28,5.89-1.66,8.16a48.18,48.18,0,0,0-2.82-4.82c2.19-1,3.77-2.63,3.67-5.17-.56-.54-1.15-1.06-1.75-1.55a45.83,45.83,0,0,0,5.5.26c-1.12-1.46-2.13-2.91-3.27-4.29,2-3.8-2.83-6.63-2-10.58-1,.45-1.91.89-2.87,1.32.15-1.11.31-2.22.47-3.32-2.34-.12-4.68,0-7,.07l-1-2.59a3.89,3.89,0,0,0-1.77,2.56c-.28-1.34-.47-2.69-.8-4,2.54-.09,4.13,1.4,5.93,2.91,2.18,0,4.37,0,6.55.25-1.72-2.68-1-5.76-.71-8.72q-1.68,1.41-3.46,2.68,1.4-1.44,2.91-2.76c-2.54-3.2.15-7-1.27-10.47-1.51-4.16,2.17-8.1,1.33-12.35-1.32-4-.52-8.28-1.85-12.3a205,205,0,0,0-2.4-37c-.57-6.31-1.39-12.58-1.21-18.93-1.77-10.64-2.49-21.45-4.86-32,1.09-5.32-.29-10.61-.76-15.89,1-4.49-1.51-8.79-.69-13.28.53-3.74-1.06-7.2-1.67-10.8-1.23-4.33.47-8.91-1.43-13.12,1.4-5.09,2-10.45,3.74-15.46,2.62-4.46,4-9.62,7.62-13.45,2.61-4,7.27-5.65,11.45-7.5,3.49-1.06,6.89.74,10.4.73,8.25,1.13,14.9,7.9,17.17,15.74,1.28,4.33,4.1,8.3,3.74,13-.22,5.75,1.54,11.34,1.46,17.08,0,3.75,1.06,7.38,2,11,.73,2.5-.22,5.11.27,7.63.89,2.84,1.9,5.63,2.74,8.48-.15,1.53-.79,3.09-.33,4.63,1,4.68.36,9.52.83,14.26.54,3.44,2.48,6.46,3,9.9,0,2.71-1.38,5.3-1,8,.46,3.17.73,6.35,1,9.53,1.5,5.62,1.3,11.49,2.29,17.19,1.73,6.4,1.31,13.26,4.47,19.27-.43,7.13,2.72,13.92,2.68,21.07-.49,5.4,2,10.53,1.28,15.94-1.18,10.06,3.67,19.45,4.4,29.34,1.09,4,1.68,8,3.38,11.77-.59,3.68-2.89,6.76-4.25,10.16l4.91-.07c0,.5-.08,1.49-.1,2-1.36-.25-2.71-.5-4.05-.73-.36,1.32-.69,2.65-1,4-1.91.45-3.7,1.16-4.41,3.18,3.49-.47,7.09-.32,9.7,2.34-.7.8-1.38,1.6-2.05,2.42,1.22.77,2.47,1.49,3.74,2.21-.19-1.2-.37-2.38-.56-3.56a44.06,44.06,0,0,0,6.69.64c2-1,3.64-2.58,5.76-3.39a23.6,23.6,0,0,1-1.58,5.57c-2.76-.1-5.51-.08-8.25-.16-1.09,2.76-.05,5.53,1,8.1l3.74-.49-1.56,2.13c-2.6.09-5.2.07-7.8.06.68,1.37,1.38,2.74,2.12,4.09-1.79.49-3.58,1-5.36,1.52a34.31,34.31,0,0,0,2.4-14.32c-2-.75-4-1.39-6-2,.41-.59,1.22-1.79,1.63-2.39l2.32,1.61c.24-1.07.48-2.14.71-3.21a35.64,35.64,0,0,1-7.48.83c-3.44,4.08-8.64,5.74-13.76,6.48C540.9,332.9,541,335.7,540,337.14Zm-49.61-59q2.1-.63,1.41,1.47Q489.68,280.2,490.4,278.1Zm53.46,55.74c.93-1.45,3.64,0,2.47,1.52C545.37,336.75,542.65,335.37,543.86,333.84Z"/><path class="cls-1" d="M747.94,317.75c.34-1.4-.19-1.87-1.59-1.42C746,317.73,746.52,318.2,747.94,317.75Z"/><path class="cls-1" d="M766.84,324.22c-.7-1.08-1.34-2.2-1.93-3.33l-2.49.92c.57,1.71,1.14,3.42,1.73,5.14C765,326,765.93,325.12,766.84,324.22Z"/><path class="cls-1" d="M751,323.35c.95-1.3-1.2-2.92-2.18-1.67S750,324.65,751,323.35Z"/><path class="cls-1" d="M648.39,339.81c2.07-1.3,3.19-3.44,4.14-5.6l-3.24.25c-.27-1.7-.47-3.42-.64-5.13-.73,1.52-1.51,3-2.36,4.46.91.69,1.84,1.38,2.79,2.05C648.81,337.15,648.58,338.47,648.39,339.81Z"/><path class="cls-1" d="M801.08,336.16q-.8,2.45,1.64,1.69C803.23,336.22,802.69,335.65,801.08,336.16Z"/><path class="cls-1" d="M836,337.33c1.35-1.54-1.31-3.08-2.21-1.42C832.41,337.41,835.07,339,836,337.33Z"/><path class="cls-1" d="M840.8,337.85q.77-2.45-1.66-1.66Q838.36,338.61,840.8,337.85Z"/><path class="cls-1" d="M827,340.84c.91-1.32,1.84-2.63,2.74-4-1.25.24-2.49.5-3.71.77Z"/><path class="cls-1" d="M995.6,341.9q2-1,0-2Q993.62,340.91,995.6,341.9Z"/><path class="cls-1" d="M995.44,343.05c-1.61.39-.54,2.62.83,2.08C997.84,344.79,996.74,342.49,995.44,343.05Z"/><path class="cls-1" d="M1084.86,357.8c-1.28,1.49,1.2,3.33,2.52,2.19C1088.55,358.59,1086.07,356.46,1084.86,357.8Z"/><path class="cls-1" d="M1040.88,374.75l.32,2.85c1.76-.22,3.93.1,4.93-1.78C1044.37,375.41,1042.63,375.06,1040.88,374.75Z"/><path class="cls-1" d="M1064.48,379.85c-1.56,3,3.36.21,0,0Z"/><path class="cls-1" d="M1060.7,385.77a51.3,51.3,0,0,0,3.3-5.28C1061.23,380.72,1061.53,383.82,1060.7,385.77Z"/><path class="cls-1" d="M1181.76,383.69c-.45,1.4,0,1.88,1.44,1.43C1183.63,383.69,1183.15,383.22,1181.76,383.69Z"/><path class="cls-1" d="M1083.43,384.63c.15,3.38,3-1.48,0,0Z"/><path class="cls-1" d="M1222.16,387c-.51.86-1,1.73-1.51,2.59a11.22,11.22,0,0,1,1.78,3.19c1.29,4.63,5.39,7.86,9.87,9.21.29-.91.59-1.83.9-2.73-3.51.6-5.77-2.16-8.36-4a34.43,34.43,0,0,1,2.45-7.32A43.72,43.72,0,0,0,1222.16,387Z"/><path class="cls-1" d="M1073.44,387.47c1.69,1.16,3.45,2.22,5.22,3.3C1077.36,388.92,1076.18,386.28,1073.44,387.47Z"/><path class="cls-1" d="M1063.9,390.58c.06-1.55-2.12-2.12-3.19-1.35C1059.17,391,1063.34,392.56,1063.9,390.58Z"/><path class="cls-1" d="M1082.4,390.53q.8-2.48-1.63-1.65Q1079.88,391.31,1082.4,390.53Z"/><path class="cls-1" d="M445.1,336.52c.87-.55,1.74-1.1,2.62-1.63-.5-5.35,1.33-11-.87-16.08.53-1.78,1.49-3.52,1.16-5.43-.34-8.7-1.82-17.27-2.58-25.92-.45-5.32-2.58-10.39-2.42-15.76-.18-4.62-2-9-2.06-13.61-.17-5.25-2.94-10-2.92-15.24-3.24-10.43-7.25-20.65-9.77-31.3-1-8.67-4.17-16.89-6.31-25.32-2.61-9.56-5.7-19-7.37-28.8a216.17,216.17,0,0,0-6.93-24.11c-1.12-6.83-3.41-13.37-5-20.07-1.55-5.33-5.31-9.63-7-14.88-1.7-4.88-5.82-8.18-8.47-12.48-1.86-2.74-4.73-4.59-6.61-7.31-4.08-6.9-11.47-10.68-17.67-15.37-2.7-2.34-6.37-2.71-9.29-4.62-2.38-1.45-5.16-1.1-7.79-1.33-2.51-.92-5-2-7.49-2.88a99.49,99.49,0,0,0-11.84,0c-4.68-1.08-9.45-.18-14,.89-5.11-.43-10.12.78-15.18,1.31-5.78.61-10.94,4.58-16.9,3.71-2.29-.25-4.15,1.41-6.26,2-1.63.12-3.34-.48-4.87.3-2.61,1.1-4.81,3.36-7.85,3.11-3.35-.21-6.05,1.91-9.14,2.77-6,1.45-11.49,4.59-17.6,5.7-3.68,1.07-8.27,2-9.89,5.94-2.22,3.67.64,7.78.32,11.68-.4,4.08,1.12,7.91,2.54,11.64,1.06,2.56.22,5.4.75,8.06,1.14,4.1,0,8.53,1.75,12.5,1.73,4.34,5.65,8.31,4.58,13.32-1.23,3.44.78,6.89.87,10.39.11,6.5,5.34,11.6,5.62,18.08-.31,5.68,1.89,11.08,2.33,16.71.66,6.41,4,12,6.07,18,2,6.76,3.65,13.67,7,19.93,1.4,4.8,1.52,10,3.66,14.57,4.81,10.64,5.83,22.41,9.13,33.51,1.64,8.19,6.45,15.38,7.62,23.72,2,5.29,3.6,10.72,5.9,15.88a29.89,29.89,0,0,0,2.65,10.37c1.94,3.83-1.57,8,0,11.85,1.12,3.17,1.42,6.8,3.92,9.3,3.29,6.16,4,13.29,4.89,20.13.2,3.38,2.6,6.14,2.63,9.56,1.6,5.21,1.71,10.8,3.89,15.85.78,2.53,2.66,4.69,2.74,7.42.34,4.16,2.28,7.94,4.28,11.53.14,1.9-.74,3.88.16,5.69,1.06,2.81,1.1,6.52,4.11,8.09,3.51,2.35,7.9,1.7,11.61.23,4.76-1.92,10.31-2.12,14.41-5.46a35.91,35.91,0,0,0,2.39-5.73,24,24,0,0,0,4.81,2.12c-.25-1.16-.51-2.31-.79-3.45-1.22.36-2.44.75-3.65,1.14,0-.8,0-2.42.05-3.23-.91,1.45-1.8,2.92-2.68,4.39l-5.83,0a11.45,11.45,0,0,0-7.91-4.86c.13-1.19.25-2.37.36-3.56,1.29.3,2.58.6,3.87.92.53-1.14,1.06-2.27,1.6-3.4a23.18,23.18,0,0,0,5.51-.45c.62-1.17,1.26-2.31,1.93-3.45,3.5,2,7.62,1.08,11.44,1.06.94.64,1.83,1.38,2.72,2.1,2.57-2.68,6.23-3.72,9.6-5,1.78.26,3.54.67,5.3,1,1.87,1.16,1.41,3.37.3,4.89-.12-.84-.37-2.52-.49-3.36-3,.19-6,.14-8.93.47a34,34,0,0,1,5.83,4.8l.2-3.07c1.36.62,2.72,1.23,4.11,1.82-.11.59-.34,1.78-.46,2.38-4.39-1.21-7,4.19-11.46,3.12,1.11-1.61,2.31-3.15,3.31-4.82-2.87,2.71-6.7,4.31-9.21,7.36a30.88,30.88,0,0,0,6.63-2.38c-.09.73-.26,2.21-.35,2.94,3.09-1.49,6.25-3.49,9.81-3.31,2.6-.15,5.38.59,7.73-.91,3.75-1.89,8-.93,11.92-1.9a62.19,62.19,0,0,1,10.57-.37c6.52-2.73,12.63-6.3,19-9.28,4.26-3.7,9.29-6.65,12.62-11.32,5.2-6.8,10.45-13.72,13.58-21.76C444.47,351.1,447.52,343.7,445.1,336.52Zm-.6-22.77c3-1.57.17,3.34,0,0ZM408.83,365l1.67.6c.11.48.32,1.43.42,1.91l-2.09.05Zm-1,1.49a16.15,16.15,0,0,1-5.54,3q-1-1.77-2-3.54C402.82,366.1,405.31,366.29,407.81,366.44Zm-46,22.39c1.17-.92,1.84-.68,2,.73C362.69,390.47,362,390.23,361.86,388.83Zm5.76,2.94c1.9-2.06,4.94-1.41,7.43-1.82C373.55,392.42,370.06,391.53,367.62,391.77Zm1.1-6.75,3.22,0c0,.58,0,1.75-.07,2.34l-2.83-.27Zm13.18,11.21-1.38-.68-.78-2.26c-1.41.83-2.85,1.62-4.27,2.43,1.22.36,2.45.73,3.67,1.12-2.15,2.67-6.62,2.06-9.68,3.35,0-.93,0-1.86,0-2.77,1.5-.5,3-1,4.49-1.6q-2.67-.35-5.3-.84a19.25,19.25,0,0,1,5.13-.84c1.6-1,3.09-2.22,4.66-3.27a37.59,37.59,0,0,1,3.83,2.21,66.68,66.68,0,0,1,6.64-3.63C389.72,393.92,384.86,394.63,381.9,396.23Zm-6.22-7.44c2.95-1.6.2,3.34,0,0ZM387,381.26c-2.79-.6-5.52.16-8.16,1,.22-.74.66-2.21.87-3a11,11,0,0,0,7.2-2.8A33.7,33.7,0,0,0,387,381.26Zm-3,4.43a9.64,9.64,0,0,1-4.7,3q-.29-1.88-.51-3.72A31.78,31.78,0,0,1,384,385.69Zm-12.82-33.61c-4.46-.86-8.27,3.36-12.71,1.61-3.62-1.62-8.76-3.51-8.93-8.18.2-3.08-1.43-5.8-1.7-8.79-.33-5.14-3.38-9.53-4.16-14.57-3.35-9.11-5.19-18.66-6.65-28.22-.78-2.84-2.62-5.31-3-8.28-.83-5.52-3.87-10.41-4.69-15.94-.34-2.15-1.67-4-2.2-6,.25-4.66-1.08-9.19-2.44-13.59-1.82-4.71-4.27-9.36-4.57-14.47,1.1-3.58-.6-7.08-.73-10.67-3-6-3.77-12.72-6.39-18.83a32,32,0,0,0-4-11.36c-3.68-9-5.24-18.79-9-27.8-1.3-2.57.26-5.48-.63-8.13-3.22-10.93-5.72-22-7.84-33.2a19.79,19.79,0,0,1,3.12-8.54c8-3.89,17.23-3,25.7-5.45,2.52-.83,5.22-.21,7.82-.31,5.52,1.77,11.9,3,15.51,7.94,1.49,4.89,3.8,9.45,5.71,14.18,1.84,4.21,1.24,9,2.91,13.27,2,5.47,2.73,11.35,5.15,16.68,1,3.51,2.13,7,3.31,10.4-.5,11.92,7.51,21.81,9.93,33.1.53,4.89.72,10,2.89,14.5,4.33,10.76,2.71,22.82,7.44,33.46,1.39,3,1,6.54,2.43,9.58,1.63,4.13.15,8.93,2.27,12.91a43,43,0,0,1,3.71,12.17c.49,4.18,3,7.66,4.31,11.56.73,6.57,2.3,13.06,2.65,19.65-1.23,5.58-3.08,11-4.31,16.61-.67,2.46-2.84,4.42-2.36,7.16C384.42,348.7,377.66,350.3,371.23,352.08Zm23,36c-1.65.5-2.22,0-1.69-1.62C394.2,386,394.76,386.51,394.24,388.11Zm2.11.66c-1.46-.4-.88-2.54.18-3.07C398.79,384.79,398.2,388.93,396.35,388.77Zm5.87-14.22a30.26,30.26,0,0,0-1.51,3.45c-2.41.82-4.84,1.77-7.45,1.56-2.67,1.59-2.56-4.26.12-2.82q-.89-1.5-1.62-3.06c1.33-.16,2.67-.29,4-.4,2.39-2.53,5.92-2.23,9-3a53.82,53.82,0,0,1,9.75,0C410.47,371.79,406.31,373.08,402.22,374.55ZM416,364a59.3,59.3,0,0,0-6.26-3.64c3-1.45,5.5-3.67,8.5-5.08C418.35,358.4,417.11,361.23,416,364Z"/><path class="cls-1" d="M398.49,376c-1.38,3.1,3.35-.14,0,0Z"/><path class="cls-1" d="M1065.65,392a54.92,54.92,0,0,0,6.32.88c1.62,3.19,5.24,3.53,8.34,2.58a9.86,9.86,0,0,0,8-2.07c-1-.75-1.93-1.51-2.86-2.28-3.74.61-8.1-.23-11.13,2.51-1.11-1.37-2.17-2.75-3.19-4.16A46.52,46.52,0,0,0,1065.65,392Z"/><path class="cls-1" d="M1155.32,391.5a63.78,63.78,0,0,0-13.52,5,78.67,78.67,0,0,0,10.89-2.58A3.44,3.44,0,0,0,1155.32,391.5Z"/><path class="cls-1" d="M1140.84,400.31c.63-1.15.1-3.39-1.35-3.57C1137.51,397.37,1139,401.2,1140.84,400.31Z"/><path class="cls-1" d="M342.69,397.87l-1.26,1c1.41.85,2.58,2.56,4.4,2.33a17.35,17.35,0,0,0,3-3.74,35.61,35.61,0,0,0-4.76,3Z"/><path class="cls-1" d="M347.71,405.48a17,17,0,0,0,3.69-6.19C349,400.51,347.95,402.93,347.71,405.48Z"/><path class="cls-1" d="M1157.58,399.29c-1.92.23-4.31,0-5.45,1.93C1154.08,401.21,1157.06,402,1157.58,399.29Z"/><path class="cls-1" d="M1216.5,401.73c.15,3.32,3-1.56,0,0Z"/><path class="cls-1" d="M1180.52,404.79q-.78,2.43,1.68,1.63C1182.7,404.79,1182.15,404.24,1180.52,404.79Z"/><path class="cls-1" d="M1176.88,405.55c-.49,1.41,0,1.89,1.39,1.45C1178.73,405.59,1178.27,405.11,1176.88,405.55Z"/><path class="cls-1" d="M1150.55,407.59l-1,1.26C1150.52,412.22,1154.38,406.81,1150.55,407.59Z"/><path class="cls-1" d="M1200.48,425.89c.11,3.34,3-1.5,0,0Z"/><path class="cls-1" d="M1211.66,431.14l1-2.46a14.3,14.3,0,0,0-4.6,2.67C1209.22,431.3,1210.43,431.23,1211.66,431.14Z"/><path class="cls-1" d="M1217.28,429.13c-1.53,3,3.32.14,0,0Z"/><path class="cls-1" d="M1202.66,429.87c.18,3.33,3-1.58,0,0Z"/><path class="cls-1" d="M1205.33,429.82c-.55,1.62,0,2.19,1.65,1.69Q1207.74,429.07,1205.33,429.82Z"/><path class="cls-1" d="M416.77,595.14c-.92-5.15,1.69-10.9-.85-15.81-1.25-2,.77-3.79,1.44-5.56-.57-1.12-1.1-2.24-1.61-3.37-.41-5.91,0-11.85.13-17.77.46-4.09-2.51-7.59-1.84-11.7l-3-1c.78-2,2.19-3.6,3.34-5.37a256.2,256.2,0,0,0,.21-26.87c-1.15-12.21-.06-24.5-.67-36.73a40.65,40.65,0,0,1-1.4-6.42c-3.67-1-7.32-2.37-11.19-2.29-6.23.06-12.81-1-18.62,1.86-3.61,1.53-3.84,6-4.63,9.31-4.15,9.65-6.54,20.06-8.82,30.29-.83,1.84-.22,3.87-.36,5.81-2.13,3.08-4,6.45-7.12,8.68a7.67,7.67,0,0,1-5.53-.42c-2-3-3.81-6.17-5.8-9.2-1.24-1.59-.57-3.71-.74-5.55-1.42-1.41-3.24-2.69-3.86-4.66-1.19-6.34-5.32-11.64-6.94-17.82a24.51,24.51,0,0,0-3.9-11.39c-1.92-4.36-7.26-5.73-11.65-5.34-6.61-.94-13.18.34-19.72,1.14-2.39.84-3.89,3.35-4.66,5.67-.58,5.71-1.39,11.81,1.27,17.12A15.43,15.43,0,0,0,299,499.45c2.46,4.71.39,10.16,1,15.19a28.53,28.53,0,0,1,1.88,10c0,3.76-.76,7.69,1,11.22.91,7.38-1.49,15.07.82,22.29.11,5.53.83,11.08.13,16.64a30.24,30.24,0,0,1,2.29,2.37c.52,4.28-1.24,8.78.93,12.79.34,7.92-.27,15.86-.05,23.78,1.52,4.4.64,9.09,1.77,13.59a21.13,21.13,0,0,1,3.56,6.71c3.13-.27,6.2,1.62,9.24.48,5.69-1.2,12.21,1.47,17.28-2.23,2.68-2.83.46-7,1.52-10.37.53-1.43,1.16-2.81,1.72-4.22-3.87-3.91-2.4-9.85-1.25-14.62.83-2.57-1.45-4.77-1-7.33.29-3.9-.06-7.82.56-11.69,1.27,0,2.56,0,3.84,0,2.55,3.86,3.62,8.46,5.24,12.76.71,4.19,3.76,7.51,4.5,11.68.49,1.94,1.86,3.51,2.65,5.34.32,1.87-.49,4.13,1.08,5.61,1.91,2.18,2.33,5.13,3.33,7.76a9.76,9.76,0,0,0,4.61,2.64c2.69-4.86,5.74-10,5.17-15.76a29.85,29.85,0,0,0,3.78-8.38c.85-3.58,3-6.91,2.73-10.69a11.8,11.8,0,0,1,5.15-9.37c1.58,1.21,3.09,2.5,4.56,3.85-3,3.56-2.54,8.47-.22,12.22,0,5.67,0,11.36-.55,17-.8,4.22,2.89,7.54,1.75,11.78,4.93,5.61,12.91-.12,18.47,4,3.46-2.43,7.65-.93,11.51-1.8-.33-6,2.2-12.17,0-18a34.25,34.25,0,0,0,0-6.94C419.18,603.66,419.88,598.58,416.77,595.14Z"/><path class="cls-1" d="M639.62,559.51c-2-11.85-.46-23.9-.54-35.84-.14-4.87,1.07-9.74.17-14.59-.29-2.69.29-5.54-1.56-7.81-.28-6.34-1.27-13.33-5.78-18.16-2.57-2.86-4.63-6.15-7.37-8.84-4-1.67-7.12-4.69-10.82-6.78-3.42-1-6.66-2.86-10.33-2.83-2.57-.06-4.77-1.5-7.11-2.35-4.19-.21-8.48-.34-12.58.67-11.58,1.54-22.85,6.57-30.93,15.14-3.57,4.54-5.42,10.15-7.11,15.56.08,7.3-1,14.85,1.38,21.89-.36,1.43-1.18,2.74-1.27,4.25-.29,9.28-.17,18.58,0,27.87.3,16.36-1.65,32.7-.43,49,.24,4,1.68,7.8,2.16,11.78s3,7,4.44,10.5c2.59,3.7,6.09,6.61,9.53,9.49,2.43,2,4.73,4.28,7.83,5.13,3.84,1,7.51,2.63,11.33,3.74,3.11.4,6.29-.22,9.37.49,2.76.69,5.52-.45,8.31-.33,5.16.23,10.2-1.27,15-2.84,5.15-3,10.67-5.68,14.47-10.4,2-2.65,5-4.45,6.94-7.11,1.38-2.55,1.9-5.45,3.23-8,1.83-3.11,1.66-6.85,1.57-10.32-1.28-3.84.11-7.9-.62-11.77-2.08-2.53-.9-5.78-1.27-8.74-.38-2.8,2.14-4.87,2.15-7.61C640,567,639.39,563.25,639.62,559.51ZM579.95,612.3c-1.23,1.1-3.42-.86-2.36-2.16C578.81,609,581,611,579.95,612.3Zm28.21-24.58c-.15,1.58,1,2.79,1.92,3.92-1.46,7.13-4.28,14.14-9.09,19.72-1,1.58-3,.91-4.51,1-2.45.09-3.94-2.37-6.3-2.65-3.86-1.26-8.54.89-12-1.74-.89-2-1.64-4.12-2.55-6.13.62-1.44,2-2.67,2-4.31-.14-4.43.66-8.84.13-13.27-.44-12.85.28-25.72-.21-38.57-.14-2.42-1.88-4.51-1.64-7-.16-4.84,1.28-10.07-1.09-14.56-1.18-2.72,2.26-5.26,1-8-1.35-3-1.38-6.35-1.66-9.57a6.89,6.89,0,0,1,1.08-5c2.11-3.17,3.66-6.94,7-9.11,5.72-4.36,13.87-2.82,19.71.55,3.07,2.77,4.52,6.82,5.84,10.64.48,11-1.13,22-.81,33-.09,2.55,1.14,4.85,2.15,7.12-.56,1.17-1.14,2.32-1.71,3.49,2.38,2.49,2.12,6.14,2.08,9.32-.45,5.62-.61,11.25-.74,16.88-.3,1.34.61,2.32,1.37,3.3C607.86,580,608.21,584.05,608.16,587.72Zm11.81,39c.06-1.65.16-3.29.21-4.92,1.22.48,2.44,1,3.67,1.47C622.55,624.37,621.27,625.53,620,626.68Z"/><path class="cls-1" d="M1114.13,487.68c-1.28-7.52,1.94-16.13-3.05-22.69-8.91-.34-17.83,0-26.74-.15-2-.35-3.4,1.15-4.7,2.35-.4,2.38.25,4.78.48,7.16,2.73-.31,4.92-2.74,7.77-2.19a11.08,11.08,0,0,0,3.75-.27c5.19-1.12,10.53-1,15.8-.68-1.42,4.6-5.85,6.76-9.77,8.87,0,1.45,0,2.92.08,4.38-3.55,2.2-5.63,5.93-8.9,8.41.42,1,.87,2.1,1.32,3.16-2.57.89-3.5,3.49-4.79,5.63-.68-1.67-1.41-3.32-2.1-5l-3.17.59c.59,1.07,1.2,2.13,1.84,3.19-1.31-.18-2.59-.34-3.87-.5-2.47,4-.92,8.69-1.46,13.06-.77,3.33,3.06,6.35.66,9.56-2.43,3.66-1,8,1.15,11.37-1,.56-2.09,1.12-3.11,1.69l-2.07-.87a60.26,60.26,0,0,0-6.41-17,37.31,37.31,0,0,1-8.07-1.65c1.3,2.07,1.39,4.48,1.26,6.85l-3.09.4c1.85,3.74,4.82,9.36.23,12.32,1.53,1,3.57,1.81,4.23,3.75,1.47,4.47,3.67,8.86,2.46,13.7-3.7-1-6.66-3.6-9.29-6.28.51-1.1,1-2.18,1.6-3.26l-4.71.47q-1.62-1.74-3.14-3.51l-2.83,2.26c1-2.75-.22-5.31-1.31-7.8a19.73,19.73,0,0,1,2.88,5,42.27,42.27,0,0,1,4.72-4c.46-1.94.83-3.9,1.41-5.81a29.46,29.46,0,0,1-4.89-.3c1-1.19,2-2.36,2.92-3.59-2.32,1.18-4.56,2.5-6.94,3.53.82,1.29,1.66,2.56,2.39,3.92-1.52-.73-2.9-1.66-4.35-2.46a70.71,70.71,0,0,0-7.13-.09c.48,2.55,1.52,5,1.83,7.58-1.64.47-3.24,1-4.83,1.55-.5-1.85-.08-4.65-2.22-5.5-2.73-1.47-5,1.85-7.77,1.55a9.67,9.67,0,0,0,1.56-5.6c.89-1.67,2-3.23,3-4.83,1.47-.62,3.12-.44,4.7-.65,1.06,1.27,2.09,2.57,3.15,3.85l2.35,0c0-1.4.07-2.81.12-4.2,2.72-1,5.62-2,6.92-4.8a15.87,15.87,0,0,0,8.75-2.6,46.79,46.79,0,0,0-9.09,0c-.06-.62-.17-1.87-.23-2.5,1.68,0,3.37,0,5.07-.11-3.23-2.82-7.72-5.08-9.13-9.34l2.59-1.28a8.89,8.89,0,0,1,5.43-5.69c2.19-.59,3.29-2.77,4.85-4.24-2.79,3.89-1.23,8.41-.13,12.57l1.41.34c0-3.31,1.36-6.91-1.28-9.61l2.3,2,2.75-2.83c.27,1.06.56,2.14.87,3.21l-1.78-.3c-.55,1-1.05,1.94-1.62,2.88.52,1,1,1.92,1.53,2.9l2,1.21c1.36,2.41-1,4.91-1.13,7.45,2.08-.17,4.88.5,5.95-1.88.48-2.67-2.61-3.89-3.86-5.81-1-1.34.28-3,.52-4.38,1.21-3-.83-6-2.11-8.6.54-.84,1.09-1.69,1.63-2.55-3.78-8.16-4.65-17.32-7.85-25.72-3.68-.76-7.28-2.41-11.1-1.7-3.47.6-6.47-2.24-10-1.42-4.23,1-8.88,1.07-12.56,3.61a62.56,62.56,0,0,1-.95,10.49c1.14,1.09,2.32,2.15,3.5,3.24l-1.4,2.68a8.73,8.73,0,0,1,6-1c-2,2.72-5.63,3.79-7.25,6.9-1.1,8.42,1.52,17-.63,25.33,1.34,2.41.3,5.11.63,7.69,3.08,5.77-.6,12.8,2.53,18.58-1,.91-2,1.82-3,2.76,3,3.09,1,7.47,2,11.23-.59.61-1.17,1.22-1.73,1.84.38,1.75,2,3.59,1,5.4-1.43,3.35-1.3,7.11-1.46,10.69.5,6.67.77,13.35.68,20,0,3.37-1.7,6.64-.9,10,1.18,7.61,1.64,15.71-1.15,23,.13,2.57.83,5.07,1.16,7.62,5,3.28,11.28,3.17,17,2.79,3-1.73,6.39-1.11,9.65-.82a15.8,15.8,0,0,0,4.11-14.82c.87-4.71,1.84-10-.82-14.38-1.73-2.11.15-4.72-.42-7-2.51-5.79-.76-12.26-2.83-18.17l2.77.28c.65-1.52,1.79-2.93,1.63-4.67.06-5.19,0-10.38,0-15.56l3.62-.25c2,4.47,2.31,9.47,4.2,14,1.71,7.78,5.53,14.84,7.86,22.41,1.81,10.2,5.37,20,8.2,29.9a21.07,21.07,0,0,0,4.76,9.21c2.43.11,5-.51,7.31.51,4,1.62,9,1.84,12.49-1.08,2.31.56,4.74,2.43,7.14,1.13,3.78-1.09,5.44-5.53,5-9.15-.41-5.07-1.06-10.22.39-15.19-1.21-7.13-2-14.59-.4-21.7-.32-5,.77-10.24-1.6-14.89-1.41-.27-2.81-.54-4.2-.79a30.11,30.11,0,0,0,3.7-3.25c.57-1.72.95-3.49,1.49-5.22l-1-1.68c-1.44,0-2.87,0-4.28,0,2.12-1.17,4.69-2,5.4-4.62,1.55-6.42-1.06-13.06,0-19.56a21.13,21.13,0,0,1,3.57-4.11,58.13,58.13,0,0,1,.86-16c.89-7-2.77-14.69,1.59-21-.61-1.64-1.64-3.17-1.75-4.94C1112.94,491.68,1114.61,489.91,1114.13,487.68Zm-85.57,65.26c.89,2.14-.41,3.33-2.39,3.91-.11-1.32-.2-2.64-.28-3.94Zm.18,27.37c-1.37,1-2.76-1.35-1.5-2.26S1029.95,579.38,1028.74,580.31Zm8-13.16c-2.26,1-5,1.52-6.6,3.5-.64,2.14-1.11,4.32-1.6,6.5-2.67-2.49-1.41-6.94-4.36-9.28-1.81-1.52-1.13-4-1.07-6.09.28-2,2.57-2.22,4-3.12,3.22,2.57,7.38,4.53,11.59,3.63C1038,563.92,1037.39,565.53,1036.74,567.15Zm41.07,19c-.61,1.32-2.17,1.85-3.22,2.77.45-2.8,1.16-5.61,3.18-7.71A28.09,28.09,0,0,1,1077.81,586.17Zm2.22,2.32c-1.75.77-2.08-2-.56-2.39C1081.1,585.39,1081.61,588.18,1080,588.49Zm3.32-14.08c-1.71.83-4.29,3.07-5.93,1.2a26.7,26.7,0,0,1,1.75-2.91q-1.52-1.56-2.94-3.15c2.09-.46,4.16-1,6.26-1.49C1083.09,570.1,1084,572.25,1083.35,574.41Zm19-95.91c2-.7,2.37,2.57.61,3C1100.9,482.22,1100.53,478.93,1102.32,478.5Zm1,98.69c-1.67.23-3.31.49-4.94.84l-1-.83c1.55-.47,3.11-.94,4.68-1.39Zm1.7-17.53c-1,1.21-3.19-.39-2.22-1.68S1105.88,558.38,1105,559.66Z"/><path class="cls-1" d="M529.69,531.31c-.24-3.34-.62-6.87,1.52-9.73-3.08-6.5-1-14-1.49-20.9-1.06-5.89-2.86-11.81-6.91-16.39-2-4.25-6.26-6.39-9.61-9.39-4.44-3-9.44-5-14.4-7-8.14-1.79-16.61-3.35-25-2.12-6.23,1.24-12.71,2.56-17.78,6.63-8,2.4-12.94,9.69-16.8,16.63-.35,3-2.58,5.49-2.22,8.59.24,2.15-1.13,4-1.36,6.08-.52,4.3.4,8.6.23,12.91a9.2,9.2,0,0,0-.48,8.28c1,1.7-.47,3.28-.68,5-.61,12.09-1.43,24.27.15,36.31-.15,10.49-.93,21-.94,31.49.06,3.93-.26,8.12,1.63,11.74s2.32,7.91,5,11.08c1.57,2,2.75,4.36,4.38,6.37,2.65,1.75,5.19,3.67,7.66,5.67,7.22,5,16.22,6.74,24.91,6.42.94-1.41,1.92-2.8,2.91-4.17,2.2.66,4.39,1.37,6.61,2a43.86,43.86,0,0,1-2.25-4.63c-4.86,1.29-9.7-1.69-13.34-4.66a85.94,85.94,0,0,0,6.51-5.85c-2.71-2.84-5.13-6.15-8.59-8.1-2.88-1.29-3.41-4.79-5.74-6.71,1.7-2,2.32-4.68,2.79-7.22.68-2.74-1.13-5.42-.17-8.13,1.94-13.53-.49-27.2-.23-40.78a8.39,8.39,0,0,0,.29-7.05c-.94-13.89.56-27.78.38-41.67,3.34-4.08,7-8.69,12.52-9.62,4.79-.89,9.39,1,13.69,2.85a26.38,26.38,0,0,1,4.81,6.15,15.58,15.58,0,0,0,1.64,7.53c1.64,3.59-3.46,6.43-1.18,9.95,2.43,4,1.29,8.7.63,13,.14,3.68,2.17,8-1.23,10.84a10.27,10.27,0,0,1,2,3.14c.63,4-3.37,7.31-1.64,11.32,2.91,4.74,1.59,10.44.8,15.59a35.47,35.47,0,0,1,0,11.17l1.89,2.64,2.9-.66c.64,3.62,2.7,7.44,1.12,11.07a9.35,9.35,0,0,0,1.09,8.56,12.12,12.12,0,0,0-1.38,4.64c4.29,1,7.63-1.82,11.3-3.43l.28-3.39c-1.57-1-3.12-2-4.6-3.09a49.83,49.83,0,0,1,2.05-4.74,26.28,26.28,0,0,1,4.7,2.16c.61,1.79.42,3.71.52,5.58a27.61,27.61,0,0,0,5.7,1.1c-2,.82-3.89,1.77-5.85,2.61.64,1.21,1.26,2.42,1.89,3.66a12.27,12.27,0,0,0,8-11.76,16.36,16.36,0,0,0,.43-13.5c-.24-5.46,2.47-11.16,0-16.47,2.38-5.18.65-10.79.36-16.16-.32-3.33,3.57-3.82,5.16-6,2-2.52,4-5.65,3.54-9-.36-2.74,1.15-5.12,1.83-7.66A52,52,0,0,0,529.69,531.31ZM517,595a58.33,58.33,0,0,1,.92-7.35l2.06.3,2.17,3A40.07,40.07,0,0,1,517,595Z"/><path class="cls-1" d="M961.76,615.63c-.06-2.5-2.47-4.37-2.07-7-.18-4,1.08-7.87.93-11.84-4.19-4.73,0-11.26-2.81-16.49-.69-5.9-2.59-11.63-2.09-17.64.76-3.83-2.55-7-1.63-10.91.64-3.77,1.41-7.8-1.14-11.07.27-1.32,1.17-2.61.77-4-1.23-4.72-1.31-9.75-3.46-14.2-.5-2.94.89-5.9.72-8.89-.73-2-2.45-3.68-2-5.93-.22-3.82,1.69-8-.32-11.55-2.41-3.55.3-7.86-1-11.69-1.3-4.09.4-8.23.13-12.36-1-4.9-6.53-7.24-11.09-6.61-3.6,0-6.74,2.68-10.38,1.65s-6.88,1.22-10.17,2.36c.12,3.72-.45,7.42-.44,11.13,5,5.18-1.27,12.76,2.78,18.3,1.75,5.15-2.08,11.35,1.93,15.93,1,9.13-1.18,18.29-.37,27.48a63.59,63.59,0,0,1-5.06,3.9c-5.23.09-10.48-.1-15.71-.26a15,15,0,0,1-7-2.15c-1.31-2.16-2.22-4.52-3.46-6.71-1.59-2.57.64-5.61-.27-8.3-3.09-6.35.09-13.42-.73-20.12-3.64-4.23-1.52-10-1.71-15,.38-2.29-1.4-4-2-6.09-.4-3.25,1.36-6.6,0-9.73a27.35,27.35,0,0,1-1.07-5.94c-2.11-1-4.25-2.11-6.64-1.69-5,.51-10,0-15,.24-2.51,1.14-5.18,2.28-7.17,4.21-1.19,3-1.87,6.44-.74,9.58.93,5.48-.24,11.32,2.06,16.55.64,2.43-.24,5,.12,7.48,3.42,5.18-.36,11.69,1.43,17.23,1.77,2.54,1.88,5.73,2,8.72-.45,5-2.57,10.62.51,15.15,1.67,5.37-1.15,11.4,1.2,16.66,1.45,5.8,2.82,11.71,1.46,17.69-1.22,3.38,2.52,5.58,2.31,8.82-.54,5.85-1.39,11.76-.82,17.64.75,1,1.63,1.84,2.48,2.75-.9.87-1.81,1.72-2.7,2.59,3.25,6.61-.27,14.64,3.64,21.13-.89,1.81-2.78,4.06-1,6a72.78,72.78,0,0,0,7.29,2.18c5.9-1,11.88-.33,17.83-.39,3-.24,6.74-3.1,5.66-6.46-2.74-8.14-.51-16.85-1.25-25.23-.57-1.4-1.28-2.73-1.9-4.08.75-1.4,2.31-2.55,2.23-4.26.21-2.45-1.25-4.52-2-6.74,0-2.54.85-5,.7-7.55-.77-2-2.51-3.7-1.95-6,0-3.53,2-6.43,3.43-9.5,4-.94,7.92-2.42,12.09-2.33,2.3.17,4.34-1,6.18-2.23,2.7,2.21,6.16,1.24,9.31.85,1.22,6.45,4,12.76,3.18,19.45,0,3-1.23,6.39,1.06,8.81,1.79,2.25,0,5.34,1.25,7.85,1.78,4.08-1,8.68,1.07,12.65,3.58,5.79-.75,12.55.6,18.81,1.91.88,3.79,1.87,5.73,2.72,7.38,1.23,14.31-2.6,21.65-2.4,1.73.17,3.26-.71,4.78-1.43a15,15,0,0,0-1.51-6C961.28,626.16,961.78,620.89,961.76,615.63Zm-95.08,2.06q-2.1.68-1.38-1.47Q867.37,615.55,866.68,617.69Zm1.05,13.81a27.34,27.34,0,0,1,4.16-7.09c-.57,1.14-1.16,2.28-1.76,3.41l2,2.71C870.67,630.86,869.19,631.19,867.73,631.5Zm65.18-17.65c.89-1.09,2.82.38,2,1.54S932.08,615,932.91,613.85Zm4.56,15.92c-1.71,1.22-3.47-.52-4.83-1.44,2.36-.19,4.73-.11,7.11-.37-2.76-1.64-5.44-3.42-7.12-6.23,2.78-2.71,6.51-1,9.89-1.74l-1.16,2c-1.53.06-3.06.11-4.56.24a6,6,0,0,1,2.4,4.86c2.2.45,4.4,1,6.6,1.53C943.19,630.27,940,628.2,937.47,629.77Zm7.28,2.57c2.43-.53,4.92-.9,7.39-1.32.5.78,1,1.56,1.53,2.35C950.69,633,947.65,633.13,944.75,632.34Z"/><path class="cls-1" d="M1004,615.7c-2.07-3-1.05-6.65-1.29-10-.45-19.25.6-38.53,0-57.76-.81-3-2.23-6.06-1.39-9.25s-1.59-6.08-2.89-8.87c.6-1.35,1.22-2.68,1.83-4-.78-1.51-1.81-3-1.52-4.8.27-3.17-1.23-6.8,1.39-9.32-3.28-4.85.84-11.37-3.15-16,.35-.5.72-1,1.1-1.48-.71-2.15-.85-4.45-1.58-6.58-1.48-3.5-.39-7.35-.5-11,.27-2.67-1.33-5-2.28-7.36-1.81-1-3.85-2.73-6-2-6.15,2.27-12.81.28-19.14,1.28-2.53,1.93-5.25,4.69-5,8.13.12,5.09-.37,10.4,1.86,15.13.31,12.55-.15,25.12.23,37.67,2.53,6.19,1.71,13.25,0,19.57-.84,2.15,1.06,3.87,1.43,5.88.28,3.23-.8,6.69,1,9.64-3.35,3.49-1.94,9-.76,13.19,4.08,6.2-2.84,14.45,2.5,20-.46,1.44-1.5,2.89-.79,4.45.77,2.77.55,5.66.57,8.51-.08,6.66.26,13.34-.53,20,1.72,4.14,4.17,9,9.24,9.51,5-.1,9.94-.39,14.92-.23,3.71-1,8.08-1.46,10.36-5,.26-3.12.13-6.28.92-9.33,1-2.38-1.17-4.12-2-6.09A16.58,16.58,0,0,1,1004,615.7Z"/><path class="cls-1" d="M748.53,617.44c-.29-4.82,1.69-10.22-1.24-14.51-.93-2.26.56-4.71.15-7-3.7-5.9,0-12.84-.66-19.22.17-3.91-1.62-7.46-3.14-10.94.47-1,1.34-2,1.28-3.17a118.82,118.82,0,0,0-.14-13.21c-3.69,1.48-7.27,3.22-11,4.53-2.88.53-5.85.16-8.75.16a37.51,37.51,0,0,1-2.66,3.84c-2.21,3.8-7.22,1.43-10.57,3.19.51,2.9-.82,5.38-2.72,7.47-.09-.72-.28-2.16-.37-2.88a15.23,15.23,0,0,1-3-2.1c-2.07-4-3.69-8.28-6.61-11.78,1.92.4,3.82.92,5.72,1.42,0,2.47,0,4.93,0,7.4,3.07-.62,6.49-.47,8.93-2.77.68.67,1.37,1.33,2.08,2a32.86,32.86,0,0,1,3.28-4.31c1-.91,2.62.09,3.68-.75a36.61,36.61,0,0,1,5.45-3.5c.13-1.4.24-2.81.32-4.2.92-.71,1.81-1.46,2.68-2.25.42-3.42-3.45-4.89-5.19-7.32.58-.78,1.16-1.55,1.76-2.33,1.41.08,2.82.17,4.25.22a36.78,36.78,0,0,0,.64-7.62c1.26.1,2.54.22,3.83.34,0,1.88,0,3.76.09,5.65,2.06.4,4.53,1.24,5.9-1,3.28-2.94-.45-7.43,2.38-10.62-.2-7.14.38-14.31.15-21.46.22-2.89-2.55-5-2.06-8,.25-4-.3-8.48,2-12-.61-1.15-1.52-2.27-1.21-3.65.33-2.48-.67-4.88-1.83-7-7.78-4.14-16.52-.88-24.18,1.8-.86,4.06-2.58,7.87-3.66,11.85-.91,3.14,3.06,4.86,2.5,7.9-1,8-.6,16-.8,24-.11,1.76-1.28,3.29-1.25,5.09-.12,6.72,0,13.44.39,20.15-1.16.56-2.27,1.2-3.46,1.65a57.07,57.07,0,0,1-10.8-10.88,29.73,29.73,0,0,0,.08-4.62,20.75,20.75,0,0,0-2,4.33c-2,.65-4,1.2-5.94,1.82-.1.7-.29,2.12-.38,2.83,1.48-.35,3-.73,4.48-1.07,1.08,4.08-2.26,7.23-5.55,9,.23,1.34.48,2.68.72,4-5.21-.63-11.07,1.9-15.5-1.86-3.25,2.67-7.46,3.68-10.75,6.32.6,1.37,1.36,2.72,1.85,4.17a15.7,15.7,0,0,1-2.28,5.76c-.79-3.6.35-7.44-1.74-10.72.57-1.36,1.16-2.71,1.75-4.06-1.37-.57-2.72-1.16-4-1.76,2-4.22.93-8.93,2.21-13.29a15.18,15.18,0,0,0,5.08-.89c-2.08-.39-4.17-.6-6.25-.86.62-2.2,1.36-4.38,1.79-6.63-1-1.62-5.09-2.74-3.28-4.82,5.38-3.34,12.23-1.2,17.57-4.49,1.2.52,2.4,1,3.64,1.51a32.69,32.69,0,0,1,2.78-5.43c2.74-3,6.41-4.86,9.35-7.65-1.16-2.08-2.61-4.08-2.86-6.52-.06-2-1.89-3-3-4.42.53-1.16,1.12-2.3,1.71-3.43a15.73,15.73,0,0,1-2.63-10.11,39.29,39.29,0,0,0-5.61-6.65c-5.77-1.79-11.91-.92-17.54,1-3.56-.21-7.47-.76-10,2.37a39.29,39.29,0,0,0-4-.47c-1.14,2.88,2.52,4.81,4,6.94-.54,1.59-1.49,3.1-1.45,4.83-.06,6,0,12,0,17.94-.22,3.47,2.53,6.1,3.34,9.35,2.43,4.9-1.4,10.88,2,15.41-.94.74-1.88,1.48-2.81,2.23l3,2.69c-2.2,3.83-.65,9-4.36,12.05,0,.81,0,2.41.07,3.21,2.9,1.08,4.09,4,5,6.7-.83,1.75-2.52,3.22-2.32,5.32.15,4.46-.73,9.54,2.34,13.25,1-.94,2.06-1.87,3.13-2.77-.42-1.22-.87-2.44-1.29-3.64a10.52,10.52,0,0,0,3.43-5c1.07,1.3,2.25,2.53,3.29,3.87,1.14,1.76-.77,3.52-1.11,5.26a9.73,9.73,0,0,0,3.68,3.85c-.27,1.56-.47,3.14-.68,4.73-3.12-1-6.91-1.79-7.74-5.48a47.77,47.77,0,0,1-5,.42c.16,3.76.4,7.64-2.26,10.7.8.44,1.6.88,2.4,1.34-4.37,2.79-2.67,8.15-2.81,12.46.26,2.14-1.41,3.87-1.35,6-.62,10,.52,20,.17,30,4.51,2.64,9.75,1.71,14.58,3.17,6.71.8,14,.63,19.75-3.43,1.29-7.57-2.29-15.66,1.7-22.73-1.78-3.4-1.1-7.15-.92-10.8-2.09-3.08-.78-6.71-.28-10-1.88-2.24-3.77-4.79-3.82-7.82,0-3.35.78-6.65.92-10,1.54-2.53,5.49-2.09,7.19,0,2.11,2,2.08,4.82,1.89,7.54,2.78,5.49,4.31,11.49,6.78,17.11.13,4.16,5,4.14,8,5.07.74,4.35,2.85,8.69,1.66,13.18-1.94,6.58,2.84,12.42,6.38,17.46,2.65-.07,5.61-1.16,7.67,1.11,1.18-1.34,2.44-2.61,3.74-3.84a23,23,0,0,0,3.44,2.36c1.31.12,2.71-.17,4,.44,3.8,1.71,8.1.61,12.13.72,1-2.88,1.92-5.92,1.07-9-.72-2.21,1.41-3.82,2.28-5.62C750.2,620.22,749,619,748.53,617.44ZM707.67,552.1c1.19-1.08,3.48.78,2.23,2.07C708.66,555.3,706.47,553.41,707.67,552.1Zm28.09,32.12c-2.48,1.28-5.34.92-7.86,0A27.24,27.24,0,0,1,735.76,584.22Zm-8.45-26.44c1.44-.5,1.9,0,1.41,1.36C727.28,559.64,726.81,559.19,727.31,557.78Zm-6.89,6.87c1.42-.48,1.88,0,1.37,1.41C720.36,566.52,719.9,566.05,720.42,564.65ZM714,569.43l1.91-.38c0,1,0,2.06,0,3.1l-2.81.37C713.39,571.48,713.69,570.45,714,569.43Zm5.31,65.41c-.27-1.29-.5-2.57-.71-3.85,1.32-.64,2.64-1.25,4-1.82C721.54,631.07,720.45,633,719.32,634.84Zm7.74-45.63a65.51,65.51,0,0,1-7.35,2.49c.33,1,.71,2,1.09,3.08-1.79.91-3.54,1.89-5.37,2.72,2.09-2.48.54-5.42.2-8.19-1.77-.81-3.55-1.59-5.31-2.36.31-2.28,1.82-4.41,1.51-6.73-1.91-2.87-3.69-5.82-5.6-8.69l3.62-.53c.58,5.12,4.31,9,8.25,12a62.81,62.81,0,0,0,6.29,6.56,31.55,31.55,0,0,1,11.47-2.65c1.15,1,2.37,1.93,3.56,2.93C735.6,588,731,587.45,727.06,589.21Zm14.88-.91c-1.32-.6-2.66-1.16-4-1.68l1.6-3.61,3.47-.42C741.19,584.07,741.63,586.26,741.94,588.3Z"/><path class="cls-1" d="M1211.27,619.88a26,26,0,0,0-19.1-.6c-2.35-.23-4.53-1.35-6.91-1.28-3.54.33-5.34-4.17-8.9-3.62-3.88-.77-5.79,3.79-9.52,3.72,1.72-1.79,3.59-3.45,5.16-5.39-.77-1.67-1.55-3.32-2.29-5-4.39-.39-7.44,3.56-11.76,3.8-1.43-3.11-1.56-6.54-1.4-9.89.32-3.17-2.24-5.77-1.92-8.94-.45-2.87,2-5.13,1.46-8,.51-2.8-1.09-5.29-1.29-8,1.33-3.57,4.2-6.14,7.14-8.4,4.74-.92,9.5-2.29,14.39-1.77,5.73.42,12.05,1.35,17.3-1.55a39.1,39.1,0,0,0,4.17-8.33c.56-5.19-1.31-10.36-3.33-15a35.47,35.47,0,0,0-20.46-.25c-1.82.42-3.44-.67-5.08-1.18-2.16-.38-4.35.2-6.49-.06-3.06-1.35-7.2-2.39-7.41-6.42-.42-7.59.23-15.23-.09-22.83,0-2-2.25-3.8-1.24-5.89a42.83,42.83,0,0,1,2.2-4.88c3.46-2.17,7.53-4,11.63-2.39.67-.94,1.33-1.89,2-2.82,2.56-.18,5.1-.61,7.67-.85,4.41,2.07,10.53,3.61,14.46-.09,1.44-1.43,3.51-.35,5.28-.65a66.45,66.45,0,0,0,5.53-3.83,23.89,23.89,0,0,0-10.9.1c-.32-1.18-.62-2.36-.91-3.54l-3.21,2c.53-.71,1.6-2.13,2.14-2.83-1.32-.46-2.64-.89-3.94-1.29,0,.75.09,2.25.13,3-1.21-.59-2.4-1.19-3.56-1.79-.73.93-1.44,1.87-2.12,2.82l-3.87-.93c3.17-2.13,7.22-2.19,10.73-3.56-.11-1.27-.23-2.54-.31-3.8,1.44-.51,2.89-1,4.37-1.44-.1.69-.29,2.08-.39,2.78,2.09-.91,4.21-1.73,6.36-2.56.06.92.19,2.77.26,3.7l2,.18a28.91,28.91,0,0,1-2.15-5.26c1.59-.45,3.2-.88,4.82-1.31-3.51-1.72-7.4-2.34-11.1-3.5-2.18-1-4.25,1.36-6.41.62-3.71-1.16-7.94-2.51-11.64-.63-3.83,2.4-8.51-.44-12.47,1.42-5,2.08-10.66-.51-15.76.71-3.08,2-6.8.76-10.2.89-4.34,1.13-8.91,2.34-12.17,5.63-1.2,3.28,0,6.75,1,9.94,1.5,16.59-.21,33.25-.32,49.87.12,4.38-.47,9.09,2.06,13-2.6,4.52-2.12,9.93-1.89,14.94a21.1,21.1,0,0,1,1.7,12.06c-.24,4.64-1.93,9.93,1.31,13.94-2.5,2.56-1.18,6.08-.5,9.09-2.31,5.56-.41,11.51,1,17,1.33,4.38-3.7,7.56-2.12,11.89,1.44,4,1.81,9,5.59,11.51,8.3.52,16.67.37,25,.14,5.08-2.91,11.06.26,16.37-1.85,2.72-.12,5.18-1.65,7.93-1.48,1.83-.09,3.35,1.17,5.14,1.4,4.26-.51,6.68-5.93,11.22-5.07,2.36.19,4.35-1.48,6.64-1.85,3.74-1.13,7.55.26,11.36,0,.57-2.88,2.3-5.58,2.08-8.55C1214.46,624.38,1214,621.07,1211.27,619.88Zm-47.95-133.09c-.31-1.21-.62-2.42-.92-3.62,1.31,1.6,2.57,3.25,3.89,4.87a64.29,64.29,0,0,0,6.57-1c-.07.61-.19,1.84-.25,2.45-4.29-.44-8.56.29-12.82.45A23.7,23.7,0,0,1,1163.32,486.79Zm-17.14-8.2c2.07-.28,5.17-.44,5.06,2.53A6.47,6.47,0,0,1,1146.18,478.59Zm11.58,138.84c-1.51,1.39-3-1.34-1.49-2.27C1157.72,614,1159.37,616.5,1157.76,617.43Zm4.73-1.42c1.71.18,1.28,3.12-.3,3.2C1160.45,619,1160.89,616.1,1162.49,616Zm.73,19.15c-1.27,1-3-1.18-1.63-2.12S1164.52,634.17,1163.22,635.16Z"/><path class="cls-1" d="M836.74,560.24c-7.4-1.56-11.87-8.11-17.6-12.41-2.68-2.68-6.29-3.87-9.61-5.49-6.89-1.82-11.52-7.66-16.88-12-3.49-2.49-3.87-7.13-5.38-10.81-1.72-5.77,2.15-10.92,3.63-16.25,3.11-1.21,6.34-2.08,9.53-3.11a14.12,14.12,0,0,1,10.4,3.19c1.54,2.81,2.55,5.92,4.13,8.75a40.73,40.73,0,0,1-.64,6.11c2.1.67,4,2.23,6.31,2.13,2.85-.09,6.24.14,7.62-2.9,3.67.92,6.71-1.46,10.26-1.51-.65-1.23-1.32-2.44-2-3.65a12.24,12.24,0,0,1,7.13-.73c-.75-7.2-2.08-15.25-7.86-20.3-2.22-3.09-4-6.63-7.21-8.82-3.87-3.68-9.36-4.46-13.67-7.38-5.61.24-10.9-1.83-16.48-2.18-2,.66-3.9,1.47-6,1.24-9,1-17.55,5.18-26.73,4.25-.66,2.64-.23,6.1-2.78,7.81-3.17,2.4-4.63,6.21-6.85,9.35-1.75,1-3.77,1.32-5.4,2.49-2.25,1.64-5.57,2.5-5,6,2.41,0,4.83-.05,7.25-.07a81.91,81.91,0,0,0,.26,15.58c1,2.89.83,6,1,9,1,1.73,2.45,3.17,3.13,5.08,1.25,2.94,1.79,6.56,4.81,8.31,4,2.67,6.24,7.32,10.55,9.59,5.14,2.65,8.81,7.36,13.76,10.3,5.42,3,9.44,7.92,15,10.77,4.52,3.7,9.37,7,14.13,10.33,2.07,5.8,5.17,11.84,2.86,18.1-2.14,5-2.09,11.5-7.14,14.74-3.6,3.28-8.4.78-12.16-.75a9.07,9.07,0,0,1-6.29-7.24c2-3,5.66-3.77,8.81-4.92-1.06-1.66-1.88-3.69-3.67-4.68-3.42-1.86-6.54-4.22-9.89-6.17C782,591.27,775.9,588,769.77,590c-3.64,1.08-8.29.14-11.14,3.06-.44,6.79-2.9,13.41-1.83,20.29a45.34,45.34,0,0,0,8.34,15.5c5,4.17,9.54,9.22,15.82,11.45,4.37,2.9,9.55,4,14.6,5.12,4.64.35,9.25-.71,13.89-1,5.23.08,10.12-2.17,15.33-2.42,8.84-5.38,19.19-10.37,23.7-20.29,2-3.81,5.27-7.41,4.7-12-.27-8.71.21-17.4.53-26.09C851.43,573.9,843.61,567,836.74,560.24Zm.18-49.31c-.19-2.21-.2-4.42-.2-6.63,1.38,0,2.76,0,4.15,0C841.47,507.35,839,509.21,836.92,510.93Zm-1.24-9.28c3-1.55.16,3.34,0,0Zm-7.11,5.84c-.06.42-.16,1.24-.22,1.66-2,0-4.08.05-6.11,0C824.32,508.5,826.48,508.14,828.57,507.49Z"/><path class="cls-1" d="M1081.93,485.64c1.19-.16,2.38-.32,3.59-.5-1.17-.45-2.33-.91-3.45-1.4C1082,484.21,1082,485.16,1081.93,485.64Z"/><path class="cls-1" d="M1086.64,489.06c0-.5,0-1.49.05-2l-2.13-.49c.1.64.31,1.93.41,2.58Z"/><path class="cls-1" d="M1080.61,489c-1.54,1,.31,3.39,1.73,2.34S1082,487.86,1080.61,489Z"/><path class="cls-1" d="M1193.61,494.76c.14,3.37,3-1.56,0,0Z"/><path class="cls-1" d="M688.63,509.64l-1,1.29C688.49,514.34,692.39,509,688.63,509.64Z"/><path class="cls-1" d="M685.62,514c0,.71.08,2.12.1,2.83a30.87,30.87,0,0,0,6.14-2.49A50.19,50.19,0,0,0,685.62,514Z"/><path class="cls-1" d="M695.57,520.7c-1.63.13-3.24.29-4.84.49,1.57.9,3.19,1.71,4.82,2.54C695.55,523,695.56,521.46,695.57,520.7Z"/><path class="cls-1" d="M690.25,523.18c-1.16,0-2.31-.1-3.46-.13a26,26,0,0,0,.93,6.75A68.84,68.84,0,0,1,690.25,523.18Z"/><path class="cls-1" d="M696.93,527.62c-1.45-.49-2.9-.94-4.34-1.36,0,1.69-.06,3.4,0,5.1l2.46-.08C695.63,530.05,696.27,528.83,696.93,527.62Z"/><path class="cls-1" d="M1030.64,563.11c-1.28.05-2.79,2.16-1.05,2.77C1031.61,566.87,1033.34,562.82,1030.64,563.11Z"/><path class="cls-1" d="M812.55,603.08c-1.29,0-2.8,2.22-1.06,2.78C813.51,606.77,815.23,602.88,812.55,603.08Z"/><path class="cls-1" d="M517.56,611.61c-1.56.83-4.21.77-4.56,2.93-.22,2.33-2.29,3.51-3.9,4.88-.07,1.13-.17,2.26-.28,3.4,4.8,3.47,9.28-1.83,13.93-2.88,0-1.48,0-3-.06-4.42A17.53,17.53,0,0,1,517.56,611.61Z"/><path class="cls-1" d="M501.46,617.74c2,.73,4.11.4,6.17.4,0-1.23,0-2.46,0-3.67C505.54,615.2,501.4,614.64,501.46,617.74Z"/><path class="cls-1" d="M486.76,624.24c2.48.7,4.77-.52,7-1.43,0-1.35,0-2.7-.06-4C490.53,619.26,489,622.27,486.76,624.24Z"/><path class="cls-1" d="M500.67,621.86c-1.19,1.47,1.39,3.07,2.39,1.62C504.23,622,501.67,620.38,500.67,621.86Z"/><path class="cls-1" d="M482.78,628c-1.15,1.52,1.5,2.9,2.52,1.6C486.44,628.11,483.73,626.62,482.78,628Z"/></g></g></svg>